<?xml version="1.0" encoding="UTF-8" standalone="no"?>
<!-- Created with Inkscape (http://www.inkscape.org/) -->

<svg
   xmlns:dc="http://purl.org/dc/elements/1.1/"
   xmlns:cc="http://creativecommons.org/ns#"
   xmlns:rdf="http://www.w3.org/1999/02/22-rdf-syntax-ns#"
   xmlns:svg="http://www.w3.org/2000/svg"
   xmlns="http://www.w3.org/2000/svg"
   xmlns:sodipodi="http://sodipodi.sourceforge.net/DTD/sodipodi-0.dtd"
   xmlns:inkscape="http://www.inkscape.org/namespaces/inkscape"
   width="843"
   height="252.84763"
   id="svg2"
   version="1.1"
   inkscape:version="0.48.2 r9819"
   sodipodi:docname="whoisoneman2feet.svg">
  <defs
     id="defs4">
    <inkscape:path-effect
       effect="skeletal"
       id="path-effect3861"
       is_visible="true"
       pattern="M 0,5 C 0,2.24 2.24,0 5,0 7.76,0 10,2.24 10,5 10,7.76 7.76,10 5,10 2.24,10 0,7.76 0,5 z"
       copytype="single_stretched"
       prop_scale="1"
       scale_y_rel="false"
       spacing="0"
       normal_offset="0"
       tang_offset="0"
       prop_units="false"
       vertical_pattern="false"
       fuse_tolerance="0" />
    <inkscape:path-effect
       effect="skeletal"
       id="path-effect3857"
       is_visible="true"
       pattern="M 0,5 C 0,2.24 2.24,0 5,0 7.76,0 10,2.24 10,5 10,7.76 7.76,10 5,10 2.24,10 0,7.76 0,5 z"
       copytype="single_stretched"
       prop_scale="1"
       scale_y_rel="false"
       spacing="0"
       normal_offset="0"
       tang_offset="0"
       prop_units="false"
       vertical_pattern="false"
       fuse_tolerance="0" />
  </defs>
  <sodipodi:namedview
     id="base"
     pagecolor="#ffffff"
     bordercolor="#666666"
     borderopacity="1.0"
     inkscape:pageopacity="0.0"
     inkscape:pageshadow="2"
     inkscape:zoom="1"
     inkscape:cx="363.9979"
     inkscape:cy="62.927415"
     inkscape:document-units="px"
     inkscape:current-layer="layer1"
     showgrid="false"
     inkscape:window-width="1440"
     inkscape:window-height="852"
     inkscape:window-x="0"
     inkscape:window-y="0"
     inkscape:window-maximized="1"
     showguides="true"
     inkscape:guide-bbox="true"
     fit-margin-top="0"
     fit-margin-left="0"
     fit-margin-right="0"
     fit-margin-bottom="0">
    <inkscape:grid
       type="xygrid"
       id="grid3023"
       empspacing="5"
       visible="true"
       enabled="true"
       snapvisiblegridlinesonly="true" />
  </sodipodi:namedview>
  <metadata
     id="metadata7">
    <rdf:RDF>
      <cc:Work
         rdf:about="">
        <dc:format>image/svg+xml</dc:format>
        <dc:type
           rdf:resource="http://purl.org/dc/dcmitype/StillImage" />
        <dc:title></dc:title>
      </cc:Work>
    </rdf:RDF>
  </metadata>
  <g
     inkscape:label="Layer 1"
     inkscape:groupmode="layer"
     id="layer1"
     transform="translate(48,-395.74216)">
    <text
       xml:space="preserve"
       style="font-size:144px;font-style:normal;font-variant:normal;font-weight:normal;font-stretch:normal;line-height:125%;letter-spacing:0px;word-spacing:0px;fill:#000000;fill-opacity:1;stroke:none;font-family:SimSun-ExtB;-inkscape-font-specification:SimSun-ExtB"
       x="239.40614"
       y="394.2478"
       id="text2993"
       sodipodi:linespacing="125%"><tspan
         sodipodi:role="line"
         id="tspan2995"
         x="239.40614"
         y="394.2478" /></text>
    <g
       style="font-size:347.09536743px;font-style:normal;font-variant:normal;font-weight:normal;font-stretch:normal;line-height:125%;letter-spacing:0px;word-spacing:0px;fill:none;stroke:#000000;stroke-width:3;stroke-miterlimit:4;stroke-opacity:1;stroke-dasharray:none;font-family:SimSun-ExtB;-inkscape-font-specification:SimSun-ExtB"
       id="g5098"
       transform="translate(1.12e-5,-3.499989)" />
    <path
       style="fill:none;stroke:none"
       d="m 319.69559,522.21729 28.40608,0.10181 0.10181,1.62903 -28.50789,-0.10182 z"
       id="path6090"
       inkscape:connector-curvature="0" />
    <g
       id="g3566">
      <g
         id="g3562">
        <path
           style="font-size:32px;font-style:normal;font-variant:normal;font-weight:normal;font-stretch:normal;text-indent:0;text-align:center;text-decoration:none;line-height:125%;letter-spacing:0px;word-spacing:0px;text-transform:none;direction:ltr;block-progression:tb;writing-mode:lr-tb;text-anchor:middle;baseline-shift:baseline;color:#000000;fill:#3c5774;fill-opacity:1;stroke:none;stroke-width:5;marker:none;visibility:visible;display:inline;overflow:visible;enable-background:accumulate;font-family:'Lobster 1.4';-inkscape-font-specification:'Lobster 1.4'"
           d="m 36.5625,438.125 c -3.721833,9e-5 -7.027168,1.06702 -9.40625,3.375 -2.248072,2.18104 -3.5625,5.03533 -3.5625,8.0625 0,1.58088 0.457435,3.1576 1.25,4.5625 1.044449,1.80419 3.218206,2.84383 5.28125,2.84375 1.905803,8e-5 3.768859,-0.56656 5.25,-1.6875 1.72283,-1.3147 2.5625,-3.51286 2.5625,-5.71875 0,-0.59444 -0.03405,-1.17244 -0.15625,-1.75 1.007936,-0.14918 2.092693,-0.3093 3.96875,-0.3125 l 0.0625,0 3.65625,0.0937 -27.9375,55.59375 -1.8125,3.625 4.03125,0 30.65625,0 c 3.707747,0 7.099907,-1.34505 9.59375,-3.90625 1.138743,-1.16953 2.043564,-2.44795 2.6875,-3.8125 2.151665,5.12152 6.63076,8.21875 12.125,8.21875 4.43349,0 8.481707,-1.87768 11.9375,-5.25 0.497507,0.96264 1.031204,1.89424 1.8125,2.625 1.936297,1.81106 4.627288,2.625 7.5625,2.625 4.44694,0 8.52263,-1.58885 11.78125,-4.59375 0.30014,-0.27677 0.58794,-0.57624 0.875,-0.875 0.47601,0.64464 1.01823,1.21994 1.625,1.75 2.92947,2.52541 6.84737,3.71875 11.3125,3.71875 5.54554,0 10.64699,-1.7912 15.21875,-5.1875 l -0.375,1.6875 -0.65625,3 3.09375,0 12.25,0 2.03125,0 0.40625,-1.96875 5.71875,-27.09375 c 0.26282,-0.93182 0.58175,-1.78003 0.96875,-2.53125 l 0.0312,0 0,-0.0312 c 0.70791,-1.42803 1.43459,-2.37384 2,-2.875 0.56541,-0.50116 0.88566,-0.59374 1.25,-0.59375 0.43186,10e-6 0.19054,-0.053 0.25,0.0312 0.0595,0.0844 0.31249,0.68574 0.3125,1.84375 -2e-5,1.38806 -0.58991,4.89084 -1.84375,9.90625 -1.29367,5.17464 -1.96877,8.97093 -1.96875,11.75 -2e-5,5.02063 2.47369,9.20082 6.8125,11.03125 1.55747,0.67718 3.18954,1.03125 4.84375,1.03125 1.37041,0 2.55908,-0.0581 3.59375,-0.1875 l 0.0312,0 c 3.33081,-0.49224 6.34185,-2.27596 8.8125,-5.03125 2.41967,3.29707 6.09116,5.21875 10.40625,5.21875 4.43349,0 8.51296,-1.87768 11.96875,-5.25 0.49751,0.96264 1.0312,1.89424 1.8125,2.625 1.9363,1.81106 4.59604,2.625 7.53125,2.625 3.61749,0 7.01239,-1.05269 9.90625,-3.0625 l 0.3125,0.0625 0,2.5 12.25,0 2,0 0.4375,-1.96875 6.59375,-31.40625 c 0.77644,-0.68963 1.55285,-1.35363 2.0625,-1.65625 l 0.0312,0 0,-0.0312 c 0.23399,-0.14623 0.59297,-0.14292 0.875,-0.21875 0.005,0.0323 -0.005,0.0288 0,0.0625 0.17723,1.15222 0.64204,2.2504 1.3125,3.21875 l 0.0312,0 0,0.0312 c 1.216,1.68906 3.17323,2.06254 5.09375,2.0625 1.84373,3e-5 3.61439,-0.74305 5,-1.96875 l -2.875,13.65625 c -0.46894,2.22706 -0.71875,4.22896 -0.71875,6.0625 0,3.97396 0.98475,7.36445 3.40625,9.59375 l 0.0312,0 c 2.21135,2.00405 5.087,3.0625 8.15625,3.0625 2.26283,0 4.40881,-0.47509 6.40625,-1.375 -0.26092,1.38156 -0.46707,2.85786 -0.84375,3.875 -1.0893,2.94139 -2.82875,6.00185 -4.375,7.65625 -7.07778,-2.16289 -17.02326,-8.03034 -31.15625,-8.09375 -4.20169,-0.0188 -8.88034,1.37135 -12.78125,3.5 -1.95045,1.06432 -3.70425,2.30106 -5.0625,3.8125 -1.35825,1.51144 -2.37121,3.37629 -2.34375,5.53125 0.0488,3.82566 1.90501,7.80658 5.96875,10.375 4.06374,2.56842 10.06746,3.94571 18.8125,3.9375 18.00155,-0.0163 29.73629,-3.60397 37.875,-8.03125 16.69694,0.66138 21.29721,-2.86246 27.53125,-5.3125 0.63282,-0.2487 1.86294,-0.53054 3.15625,-1.5 0.64666,-0.48473 1.63662,-1.4918 1.53125,-3 -0.10537,-1.5082 -1.08204,-2.37144 -1.96875,-2.96875 -0.93944,-0.58383 -2.13979,-0.13602 -3.28125,0.40625 -0.0548,0.0471 -0.20239,0.16901 -0.40625,0.28125 -0.40773,0.22447 -1.04797,0.53232 -1.84375,0.84375 -1.59156,0.62286 -3.81587,1.31025 -6.3125,1.90625 -3.44867,0.82328 -7.34763,1.25287 -11.125,1.375 1.71722,-3.06886 2.46822,-6.46171 2.90625,-8.90625 l 0.0312,0 c 0.003,-0.0162 -0.003,-0.0464 0,-0.0625 l 10.375,-49.1875 0.625,-3.03125 -3.09375,0 -12.3125,0 -2.03125,0 -0.40625,2 -5.71875,27 -0.0312,0.0625 c -0.70245,2.2441 -1.52281,3.81919 -2.28125,4.65625 -0.71038,0.78401 -1.23557,0.96927 -1.9375,1 -0.0399,-0.10891 -0.1875,-0.37494 -0.1875,-1.1875 0,-0.52692 0.0627,-1.05298 0.1875,-1.59375 l 0,-0.0312 0,-0.0312 6.09375,-28.84375 0.65625,-3.03125 -3.09375,0 -12.21875,0 -2.03125,0 -0.4375,2 -0.59375,2.84375 c -0.3189,-0.65785 -0.72116,-1.29739 -1.1875,-1.90625 -1.4847,-1.93824 -3.93394,-2.93744 -6.46875,-2.9375 -2.27113,6e-5 -4.43603,0.71228 -6.40625,1.90625 l 0.40625,-1.90625 -3.0625,0 -12.25,0 -2.03125,0 -0.40625,2 -5.8125,27.375 c -0.7046,2.26418 -1.52669,3.87272 -2.28125,4.75 -0.79472,0.92398 -1.2933,1.12501 -2.0625,1.125 -0.72484,1e-5 -0.80661,-0.11883 -0.8125,-0.125 -0.006,-0.006 -0.18751,-0.21233 -0.1875,-1.03125 -2e-5,-0.61533 0.0767,-1.29868 0.28125,-2.09375 l 0.0312,-0.0625 0,-0.0625 6.09375,-28.84375 0.65625,-3.03125 -3.09375,0 -12.21875,0 -2.0625,0 -0.15625,0.78125 c -1.59462,-0.81363 -3.41067,-1.18745 -5.59375,-1.1875 -5.21582,7e-5 -9.94304,1.8804 -13.65625,5.46875 -3.58768,3.46714 -6.30752,7.83012 -8.1875,13 -0.85007,2.34507 -1.49331,4.73595 -1.90625,7.125 -0.38478,2.19853 -0.57119,4.4013 -0.59375,6.625 -0.45659,0.87092 -0.87766,1.55721 -1.25,2 -0.53048,0.63082 -1.12353,0.93751 -2.5,0.9375 -0.27402,0 -0.37128,-0.0212 -0.40625,-0.0312 0.0153,0.0179 -0.18751,-0.23221 -0.1875,-1.09375 -1e-5,-0.80845 0.18047,-2.13366 0.59375,-3.8125 l 2.03125,-8.1875 0,-0.0312 c 0.97354,-3.84517 1.46872,-7.34163 1.46875,-10.53125 l 0,-0.0312 c -4e-5,-3.44196 -1.17805,-6.52425 -3.59375,-8.53125 -2.27235,-1.88768 -5.17479,-2.84369 -8.34375,-2.84375 -2.13845,3e-5 -4.19656,0.49601 -6.09375,1.34375 l 3.1875,-14.96875 0.71875,-3.5 -3.5,0.5 -12.5625,1.6875 -1.75,0.25 -0.375,1.71875 -8.90625,41.71875 c -2.27001,2.52999 -4.38586,4.4473 -6.28125,5.6875 -1.74119,1.13177 -3.94821,1.75003 -6.84375,1.75 -1.51204,10e-6 -2.16195,-0.32956 -2.5625,-0.75 -0.40055,-0.42044 -0.78125,-1.25703 -0.78125,-2.90625 0,-2.09646 0.12265,-3.98568 0.375,-5.6875 10e-4,-0.009 -0.001,-0.022 0,-0.0312 0.92956,-5.90113 2.61984,-10.7427 4.96875,-14.53125 0.81204,-1.32424 1.56913,-2.23971 2.125,-2.71875 0.43853,-0.37792 0.58243,-0.3545 0.6875,-0.375 0.04,0.1247 0.12499,0.234 0.125,0.875 -2e-5,1.14209 -0.26523,2.51519 -0.875,4.125 l -0.71875,1.90625 1.6875,1.09375 c 1.36817,0.88751 2.95641,1.37503 4.5625,1.375 1.85606,3e-5 3.61527,-0.93045 4.84375,-2.3125 l 0.0312,-0.0312 c 1.45337,-1.68049 1.93747,-3.90755 1.9375,-6.40625 -2e-5,-3.1226 -1.22242,-6.01192 -3.5625,-7.78125 -2.34008,-1.76933 -5.44015,-2.43747 -9.15625,-2.4375 -2.74618,7e-5 -5.42105,0.61735 -7.96875,1.8125 -4.83441,2.21711 -8.66698,5.94156 -11.375,10.90625 -3.46956,6.38521 -5.24998,13.11129 -5.25,20.03125 0,0.10701 -0.001,0.20627 0,0.3125 -0.37602,0.7649 -0.75576,1.3832 -1.125,1.8125 -0.79472,0.92398 -1.32455,1.12501 -2.09375,1.125 -0.72484,1e-5 -0.80661,-0.11883 -0.8125,-0.125 -0.006,-0.006 -0.18751,-0.21233 -0.1875,-1.03125 -2e-5,-0.61534 0.10795,-1.29868 0.3125,-2.09375 l 0,-0.0625 0.0312,-0.0625 6.09375,-28.84375 0.625,-3.03125 -3.09375,0 -12.21875,0 -2.0625,0 L 91.25,460.125 c -1.59148,-0.80745 -3.417593,-1.18745 -5.59375,-1.1875 -5.215818,7e-5 -9.911791,1.8804 -13.625,5.46875 -3.587687,3.46715 -6.338773,7.83012 -8.21875,13 -0.850071,2.34507 -1.462053,4.73595 -1.875,7.125 -0.242014,1.38279 -0.398146,2.76631 -0.5,4.15625 -1.153006,-1.04827 -2.754365,-1.62497 -4.3125,-1.625 -1.927816,4e-5 -3.807742,0.59548 -5.28125,1.78125 l 0,0.0312 c -1.679043,1.32837 -2.468785,3.47283 -2.46875,5.65625 -1.5e-5,0.5547 0.03886,1.10558 0.15625,1.65625 -1.483535,0.16559 -3.120012,0.27911 -4.90625,0.28125 l -0.0625,0 -4.15625,-0.0937 27.5,-54.65625 1.8125,-3.59375 -4.03125,0 z m 16.75,5 8.3125,0 -27.46875,54.5625 2.21875,1.125 -0.03125,2.5 8.15625,0.15625 0.03125,0 0.03125,0 c 2.045478,0 3.947162,-0.10593 5.71875,-0.3125 l 0.03125,0 c 2.025295,-0.26994 3.907203,-0.94454 5.09375,-2.5625 l 2.9375,-4 -3.96875,0 c -0.0012,-0.0325 -10e-7,-0.0264 0,-0.0625 -1.9e-5,-1.18121 0.209184,-1.50433 0.5625,-1.78125 l 0.03125,0 c 0.569434,-0.46171 1.16236,-0.68748 2.15625,-0.6875 0.868017,2e-5 0.835699,0.0519 1.03125,0.375 l 0,0.0312 c 0.452138,0.71596 0.624971,1.30016 0.625,1.90625 -3.8e-5,1.73259 -0.665316,3.30659 -2.375,5.0625 -1.598599,1.64178 -3.403363,2.375 -6,2.375 l -26.59375,0 27.875,-55.46875 1.625,-3.21875 z m -18.75,0.28125 c -0.517198,0.17518 -1.039503,0.2953 -1.53125,0.65625 -0.752156,0.5521 -1.5,1.67429 -1.5,2.84375 l 0,2.5 1.375,0 c 0.0058,0.0697 0.03125,0.0701 0.03125,0.15625 0,1.16765 -0.21512,1.46106 -0.59375,1.75 -0.565055,0.42764 -1.193561,0.65629 -2.21875,0.65625 -0.867948,4e-5 -0.765339,-0.0464 -0.9375,-0.34375 -0.411217,-0.73866 -0.59375,-1.38534 -0.59375,-2.0625 0,-1.72869 0.574118,-3.05507 2.03125,-4.46875 0.950672,-0.92226 2.30389,-1.40874 3.9375,-1.6875 z m 126.125,4.375 -3.8125,17.9375 -2,9.375 0.40625,-0.4375 c -0.22478,0.57746 -0.51423,1.10441 -0.6875,1.71875 l -0.0312,0.0937 0,0.0937 -5.34375,25.25 -7.125,0 1.25,-5.90625 c 1.34831,-1.66315 2.62862,-3.49768 3.84375,-5.5 l 2.3125,-3.8125 -4.15625,0 8.0625,-37.8125 7.28125,-1 z m -31.3125,15.9375 c -0.58723,0.29066 -1.15849,0.63353 -1.65625,1.0625 -1.14466,0.98646 -2.13973,2.26827 -3.125,3.875 -2.78993,4.49987 -4.64919,9.98983 -5.65625,16.40625 -0.29797,1.99633 -0.4375,4.15251 -0.4375,6.46875 0,2.44314 0.60741,4.71801 2.15625,6.34375 1.54884,1.62574 3.80074,2.31252 6.1875,2.3125 1.61727,10e-6 3.1413,-0.22851 4.59375,-0.5625 -3.04248,1.68644 -6.22517,2.6875 -9.71875,2.6875 -3.60897,0 -6.14944,-0.87775 -8.03125,-2.5 -0.65473,-0.57195 -1.21623,-1.30527 -1.65625,-2.25 1.3447,-2.21443 2.50906,-4.76732 3.5,-7.65625 l -2.375,-0.8125 0,-2.5 -1.90625,0 c 0.59,-4.40138 2.01716,-8.68202 4.3125,-12.90625 2.26916,-4.16011 5.24572,-6.98525 9.09375,-8.75 l 0.0312,0 c 1.55196,-0.72804 3.09719,-1.08064 4.6875,-1.21875 z m -43.71875,0.21875 c 1.299315,3e-5 2.172905,0.15269 2.8125,0.34375 -0.17956,-0.0104 -0.353223,-0.0937 -0.53125,-0.0937 -2.467895,5e-5 -4.686238,1.36144 -6.46875,3.375 -4.037598,4.56561 -6.422523,10.93774 -7.375,18.875 -0.151268,1.27028 -0.21875,2.6119 -0.21875,4 0,2.84702 0.524264,5.31353 2.3125,7.03125 0.01015,0.0102 0.02101,0.0213 0.03125,0.0312 1.049256,1.03143 2.546104,1.59378 4,1.59375 1.074308,10e-6 2.130404,-0.26463 3.125,-0.65625 -2.650172,2.68185 -5.413268,3.875 -8.53125,3.875 -4.102613,0 -6.205858,-1.4882 -7.71875,-5.625 l 0.03125,0 c -0.519061,-1.42179 -0.812477,-3.08996 -0.8125,-5.0625 2.4e-5,-2.09575 0.168805,-4.1791 0.53125,-6.25 0.361319,-2.09037 0.933827,-4.17087 1.6875,-6.25 1.659373,-4.56322 3.975507,-8.23233 6.96875,-11.125 2.867721,-2.77129 6.081266,-4.06245 10.15625,-4.0625 z m 120.125,0 c 1.29433,3e-5 2.14162,0.15363 2.78125,0.34375 -0.17102,-0.009 -0.3304,-0.0937 -0.5,-0.0937 -2.4679,5e-5 -4.68624,1.36144 -6.46875,3.375 -4.03759,4.56561 -6.42253,10.93774 -7.375,18.875 -0.15127,1.27028 -0.21875,2.61189 -0.21875,4 0,2.84702 0.52426,5.31353 2.3125,7.03125 0.0103,0.0103 0.0209,0.0211 0.0312,0.0312 1.04923,1.03116 2.54629,1.59378 4,1.59375 1.06402,10e-6 2.10756,-0.27179 3.09375,-0.65625 -2.64993,2.68127 -5.41358,3.875 -8.53125,3.875 -3.74673,0 -5.80089,-1.25874 -7.28125,-4.625 1.28548,-2.24253 2.41809,-4.82584 3.4375,-7.78125 l 1.125,-3.3125 -3.5,0 -1.90625,0 c 0.0561,-0.40438 0.11689,-0.81531 0.1875,-1.21875 0.36132,-2.09037 0.90258,-4.17087 1.65625,-6.25 1.65938,-4.56322 4.00676,-8.23232 7,-11.125 2.86773,-2.77129 6.08127,-4.06245 10.15625,-4.0625 z M 169.25,464 c 2.25064,4e-5 3.83388,0.58898 5.15625,1.6875 1.17267,0.97427 1.7748,2.29181 1.78125,4.6875 3e-5,0.0127 0,0.0186 0,0.0312 -0.003,2.65752 -0.41426,5.77232 -1.3125,9.3125 l 0,0.0312 -2.0625,8.21875 c -0.47162,1.91582 -0.71878,3.54109 -0.71875,5 -1e-5,1.57176 0.32283,3.10919 1.375,4.34375 1.05217,1.23456 2.69293,1.78126 4.21875,1.78125 1.16518,10e-6 2.29937,-0.24208 3.34375,-0.65625 -0.0132,0.0155 -0.018,0.0471 -0.0312,0.0625 -1.91017,2.22458 -3.84019,3.32467 -5.96875,3.65625 -0.73509,0.0919 -1.73998,0.15625 -2.96875,0.15625 -0.94503,0 -1.88861,-0.19612 -2.875,-0.625 -2.73989,-1.15589 -3.78127,-2.77569 -3.78125,-6.4375 -2e-5,-1.86631 0.56225,-5.53029 1.8125,-10.53125 1.29002,-5.16015 1.99996,-8.64184 2,-11.125 -2e-5,-1.74532 -0.25511,-3.35144 -1.21875,-4.71875 -0.96364,-1.36731 -2.72947,-2.15621 -4.34375,-2.15625 -0.4358,10e-6 -0.85893,0.15835 -1.28125,0.25 2.05153,-1.89065 4.2092,-2.96872 6.875,-2.96875 z m -34.65625,0.0937 c 0.87917,0.24806 1.61311,0.57409 2.09375,0.9375 1.06099,0.80221 1.56249,1.76081 1.5625,3.78125 -3e-5,1.81498 -0.40252,2.75935 -0.71875,3.125 -0.51661,0.57276 -0.74533,0.62501 -1.09375,0.625 -0.0405,0 -0.085,-0.0299 -0.125,-0.0312 0.28326,-1.17459 0.46873,-2.34207 0.46875,-3.46875 -2e-5,-1.45397 -0.2041,-2.84037 -1.0625,-4.0625 -0.27618,-0.39321 -0.72442,-0.62538 -1.125,-0.90625 z m -39.09375,0.25 7.125,0 -5.4375,25.75 -0.03125,0.0937 0.03125,0 c -0.278143,1.10812 -0.468784,2.18124 -0.46875,3.25 -1.8e-5,1.61438 0.407046,3.25827 1.5625,4.46875 1.155454,1.21048 2.83963,1.68751 4.4375,1.6875 0.53421,0 1.0168,-0.25424 1.53125,-0.375 -2.35991,2.08795 -4.909242,3.09375 -8.125,3.09375 -2.069662,0 -3.282367,-0.49312 -4.125,-1.28125 -0.842633,-0.78813 -1.484204,-2.07648 -1.71875,-4.28125 l -0.625,-5.75 c 0.146096,-0.45927 0.35933,-0.86001 0.46875,-1.34375 l 0,-0.0312 0.03125,0 4.0625,-19.15625 -2.46875,-0.53125 2.5,0 c -6.5e-5,-1.27255 -0.46489,-2.24311 -1.0625,-3.21875 -0.0076,-0.0134 -0.02353,-0.0179 -0.03125,-0.0312 L 95,466.875 l 0.5,-2.53125 z m 120.125,0 7.125,0 -5.4375,25.75 -0.0312,0 c -0.008,0.0314 0.008,0.0623 0,0.0937 -0.2781,1.10803 -0.43754,2.1813 -0.4375,3.25 -2e-5,1.61438 0.40705,3.25827 1.5625,4.46875 1.15545,1.21048 2.83963,1.68751 4.4375,1.6875 0.53916,0 1.01229,-0.25206 1.53125,-0.375 -2.35991,2.08795 -4.94049,3.09375 -8.15625,3.09375 -2.06966,0 -3.28237,-0.49312 -4.125,-1.28125 -0.84263,-0.78813 -1.48421,-2.07648 -1.71875,-4.28125 l -0.59375,-5.78125 c 0.14185,-0.44915 0.36188,-0.84003 0.46875,-1.3125 l 0,-0.0312 4.0625,-19.15625 -2.4375,-0.53125 2.5,0 c -7e-5,-1.27253 -0.46488,-2.2431 -1.0625,-3.21875 -0.008,-0.0133 -0.0237,-0.0181 -0.0312,-0.0312 l 1.84375,0.1875 0.5,-2.53125 z m 21.84375,0 7.15625,0 -0.46875,2.28125 -0.8125,4.03125 -0.15625,0.125 -0.15625,0.75 -6.375,30.28125 -7.125,0 0.1875,-0.84375 c 2.44947,-2.84616 4.38903,-6.54817 5.9375,-11.0625 l -2.375,-0.8125 0,-2.5 -0.53125,0 z m 19.28125,0 c 1.44689,4e-5 1.99376,0.30787 2.5,0.96875 0.77164,1.00748 0.96874,1.72747 0.96875,2.21875 -2e-5,1.59577 -0.3608,2.57273 -1.03125,3.34375 l -0.0312,0 c -0.69674,0.82179 -1.16739,1.03127 -2.03125,1.03125 -0.78429,10e-6 -1.04963,-0.125 -1.09375,-0.125 -0.22958,-0.37306 -0.36911,-0.69604 -0.40625,-0.9375 -0.12153,-0.81965 -0.28882,-1.53923 -0.59375,-2.25 -0.005,-0.0129 -0.0263,-0.0183 -0.0312,-0.0312 -0.0212,-0.0485 -0.009,-0.10776 -0.0312,-0.15625 l -0.0625,0.0312 c -0.27492,-0.61394 -0.72724,-1.22842 -1.34375,-1.59375 -0.6336,-0.37546 -1.29408,-0.48593 -1.875,-0.5 0.32977,-0.23449 0.59478,-0.48839 0.9375,-0.71875 1.3481,-0.89147 2.64294,-1.28121 4.125,-1.28125 z m 12.75,0 7.125,0 -5.46875,25.8125 0,0.0312 c -0.20239,0.88724 -0.3125,1.78691 -0.3125,2.6875 0,1.52672 0.20653,2.9246 1.0625,4.1875 0.85597,1.2629 2.51064,2.03127 3.96875,2.03125 0.84676,10e-6 1.64717,-0.27601 2.4375,-0.5625 -2.41371,2.61606 -4.9442,3.78125 -8.1875,3.78125 -2.00786,0 -3.45904,-0.55969 -4.78125,-1.75 -1.06254,-0.9782 -1.8125,-2.74623 -1.8125,-5.90625 0,-1.37394 0.17769,-3.05533 0.59375,-5.03125 l 5.375,-25.28125 z m 20.96875,0 7.21875,0 -9.75,46.25 0,0.0625 0,0.0312 c -0.62314,3.48392 -2.06714,8.35952 -4.78125,10.34375 l -5.125,3.75 0.65625,0.0625 c -7.31749,3.66533 -17.694,6.67281 -33.9375,6.6875 -8.19537,0.008 -13.29904,-1.4014 -16.125,-3.1875 -2.82596,-1.7861 -3.6251,-3.74328 -3.65625,-6.1875 -0.006,-0.47 0.23549,-1.20472 1.0625,-2.125 0.82701,-0.92028 2.16886,-1.91845 3.75,-2.78125 3.16229,-1.7256 7.36232,-2.88849 10.375,-2.875 3.81662,0.0171 7.19055,0.61593 10.375,1.40625 -1.81627,-0.42521 -3.73944,-0.8045 -5.78125,-1.09375 -2.50379,-0.35469 -6.02405,-0.11496 -9.375,0.71875 -1.67548,0.41685 -3.28279,0.96949 -4.6875,1.875 -1.40471,0.90551 -2.75522,2.3673 -2.9375,4.375 -0.17045,1.87722 0.76426,3.65774 2,4.78125 1.23574,1.12351 2.77298,1.83528 4.46875,2.40625 3.39154,1.14194 7.55834,1.60927 11.59375,1.46875 7.71779,-0.26874 15.70988,-1.30081 22.375,-4.5 l 7.15625,-3.4375 -1.46875,-0.25 c 3.32252,-2.64771 5.16816,-6.99745 6.5,-10.59375 0.99318,-2.68183 1.32541,-5.7089 1.6875,-7.3125 l -0.0312,0 0.875,-3.71875 -4.0625,-2.09375 c 1.05508,-0.46908 2.01833,-1.12351 2.8125,-2 1.50039,-1.65591 2.56495,-3.84331 3.40625,-6.5625 l 0.0312,-0.125 0.0312,-0.0937 5.34375,-25.28125 z M 87.9375,469.1875 c 0.853154,2e-5 0.997463,0.12373 0.96875,0.0937 0.232442,0.38305 0.303038,0.59676 0.3125,0.625 l -3.96875,18.625 0,0.0312 c -0.445179,1.94693 -1.176148,3.28951 -2.15625,4.25 -1.016175,0.97554 -1.844025,1.28126 -2.875,1.28125 -0.356884,10e-6 -0.33365,0.0101 -0.5,-0.15625 l -0.03125,-0.0312 -0.03125,-0.0312 c -0.287212,-0.27208 -0.78125,-1.26921 -0.78125,-3.4375 0,-1.21108 0.06217,-2.35379 0.1875,-3.40625 0.872493,-7.27074 3.00456,-12.5924 6.15625,-16.15625 1.203748,-1.35978 2.034427,-1.68749 2.71875,-1.6875 z m 120.125,0 c 0.56876,10e-6 0.83803,0.0671 0.9375,0.0937 0.23386,0.3838 0.32592,0.59728 0.34375,0.625 l -3.96875,18.625 0,0.0312 c -0.44518,1.94693 -1.2074,3.28951 -2.1875,4.25 -1.00598,0.95886 -1.82033,1.28126 -2.84375,1.28125 -0.35689,10e-6 -0.33363,0.0101 -0.5,-0.15625 l -0.0312,-0.0312 -0.0312,-0.0312 C 199.49394,493.60287 199,492.60579 199,490.4375 c 0,-1.21107 0.0622,-2.35379 0.1875,-3.40625 0.87249,-7.27074 3.00456,-12.5924 6.15625,-16.15625 1.20375,-1.35978 2.03443,-1.68749 2.71875,-1.6875 z m 34.59375,50.375 c 0.5485,0.007 1.02815,0.0447 1.375,0.0937 6.04315,0.8561 10.79729,2.53705 14.875,4 -4.16329,0.97226 -8.71181,1.49714 -13.28125,1.65625 -3.51144,0.12228 -7.25893,-0.3277 -9.8125,-1.1875 -1.27678,-0.4299 -2.2352,-0.99503 -2.6875,-1.40625 -0.4523,-0.41122 -0.42167,-0.42391 -0.40625,-0.59375 -0.002,0.0192 0.0111,-0.18895 0.6875,-0.625 0.67644,-0.43605 1.85411,-0.91826 3.1875,-1.25 1.33339,-0.33174 2.86294,-0.53179 4.21875,-0.625 0.67791,-0.0466 1.29525,-0.0697 1.84375,-0.0625 z"
           id="path4921"
           inkscape:connector-curvature="0"
           sodipodi:nodetypes="ccscccscccccccsscscsssccscccccccccccscccsccscccscssccccccccccccccccccsccscsccsscsccssscccssccccccccccccscscccccccccccccccccccsccccccccccccccccccscccccscccccccccccccsscccscccccccccscccscsccccccccccccccccccccccccccccccccccccsccccccccccccsscccccssccscccscccccccccccccccccccsccssccsccccccccccccccccsccccscccccsccccccsccccsccccccccccccccccccsccccsccscscccccscccccsccccccccsscsscccccccccccccccccccsscssccccccccccccccccccccccccccccccccccccccsccccccccssccscsccccccccccccscssscssssssscccsccccscccccccccccccccscccccccccccccsccccccsssccsscc" />
        <path
           style="font-size:32px;font-style:normal;font-variant:normal;font-weight:normal;font-stretch:normal;text-indent:0;text-align:center;text-decoration:none;line-height:125%;letter-spacing:0px;word-spacing:0px;text-transform:none;direction:ltr;block-progression:tb;writing-mode:lr-tb;text-anchor:middle;baseline-shift:baseline;color:#000000;fill:#3c5774;fill-opacity:1;fill-rule:nonzero;stroke:none;stroke-width:5;marker:none;visibility:visible;display:inline;overflow:visible;enable-background:accumulate;font-family:'Lobster 1.4';-inkscape-font-specification:'Lobster 1.4'"
           d="m 337,438.125 c -3.72183,9e-5 -7.02717,1.06702 -9.40625,3.375 -2.24807,2.18104 -3.53125,5.03532 -3.53125,8.0625 0,1.58089 0.42619,3.1576 1.21875,4.5625 l 0.0312,0 c 1.04445,1.8042 3.2182,2.84383 5.28125,2.84375 1.9058,8e-5 3.73761,-0.56656 5.21875,-1.6875 l 0.0312,0 c 1.72283,-1.3147 2.5625,-3.51286 2.5625,-5.71875 0,-0.59457 -0.0652,-1.17233 -0.1875,-1.75 1.00816,-0.15105 2.10926,-0.30927 4,-0.3125 l 0.0625,0 3.625,0.0937 -27.9375,55.59375 -1.8125,3.625 4.0625,0 30.65625,0 c 3.63061,0 6.95918,-1.29167 9.4375,-3.75 l -0.15625,0.78125 -0.59375,3 3.09375,0 11.9375,0 2.0625,0 0.4375,-2 8.78125,-42.46875 0.5,-2.625 0.0937,-0.40625 0,-0.0312 -3.09375,0 -1.625,0 c 0.39016,-0.0949 0.78015,-0.21666 1.15625,-0.34375 0.37373,-0.12807 0.74004,-0.26751 1.09375,-0.4375 0.009,-0.004 0.0225,0.004 0.0312,0 0.53996,-0.26146 1.05646,-0.59089 1.53125,-0.96875 0.0113,-0.009 0.02,-0.0221 0.0312,-0.0312 0.15218,-0.12258 0.29362,-0.23882 0.4375,-0.375 0.0104,-0.01 0.0209,-0.0212 0.0312,-0.0312 0.21813,-0.20922 0.43012,-0.42872 0.625,-0.65625 0.006,-0.007 -0.006,-0.0247 0,-0.0312 0.14598,-0.1713 0.27386,-0.35059 0.40625,-0.53125 0.0486,-0.0667 0.10951,-0.1196 0.15625,-0.1875 0.16569,-0.23926 0.32709,-0.497 0.46875,-0.75 0.007,-0.0122 0.0245,-0.019 0.0312,-0.0312 0.14265,-0.25757 0.25809,-0.51147 0.375,-0.78125 0.004,-0.009 -0.004,-0.0222 0,-0.0312 0.0443,-0.10306 0.0846,-0.20786 0.125,-0.3125 0.0646,-0.16802 0.13298,-0.32827 0.1875,-0.5 0.17341,-0.54151 0.27483,-1.08672 0.34375,-1.65625 0.005,-0.0426 0.0267,-0.0823 0.0312,-0.125 0.001,-0.0102 -10e-4,-0.0211 0,-0.0312 0.001,-0.0101 -10e-4,-0.0211 0,-0.0312 0.0294,-0.29549 0.0625,-0.60644 0.0625,-0.90625 -10e-6,-0.60678 -0.0728,-1.19607 -0.1875,-1.78125 -0.002,-0.01 0.002,-0.0216 0,-0.0312 -0.11859,-0.59464 -0.30044,-1.19301 -0.53125,-1.75 -0.23081,-0.55699 -0.50709,-1.08958 -0.84375,-1.59375 -0.008,-0.0123 -0.023,-0.019 -0.0312,-0.0312 -0.16093,-0.24305 -0.31652,-0.46022 -0.5,-0.6875 -0.009,-0.0112 -0.022,-0.0201 -0.0312,-0.0312 -0.18489,-0.22674 -0.3871,-0.44757 -0.59375,-0.65625 -0.0104,-0.0104 -0.0208,-0.0209 -0.0312,-0.0312 -0.20845,-0.20843 -0.43247,-0.40735 -0.65625,-0.59375 -0.0113,-0.009 -0.0199,-0.0221 -0.0312,-0.0312 -1.41427,-1.16713 -3.10877,-1.88004 -4.9375,-2.0625 -0.0101,-0.001 -0.0211,9.8e-4 -0.0312,0 -0.29489,-0.0284 -0.60562,-0.0625 -0.90625,-0.0625 l -0.0625,0 c -0.92002,4e-5 -1.82803,0.1678 -2.6875,0.4375 -0.01,0.003 -0.0217,-0.003 -0.0312,0 -0.57,0.18095 -1.13246,0.42923 -1.65625,0.71875 -0.008,0.004 -0.0233,-0.004 -0.0312,0 -0.79642,0.44333 -1.51255,0.98518 -2.15625,1.65625 -0.005,0.006 0.005,0.0256 0,0.0312 -0.20318,0.21317 -0.41381,0.42538 -0.59375,0.65625 -0.37681,0.47644 -0.69396,0.99567 -0.96875,1.53125 -0.27126,0.5287 -0.48961,1.08518 -0.65625,1.65625 -0.24995,0.8566 -0.375,1.74699 -0.375,2.65625 0,0.56674 0.0543,1.13759 0.15625,1.6875 0.008,0.0413 0.023,0.0838 0.0312,0.125 0.002,0.01 -0.002,0.0213 0,0.0312 0.11752,0.57891 0.27538,1.14409 0.5,1.6875 0.22104,0.54092 0.52062,1.07215 0.84375,1.5625 0.005,0.007 -0.005,0.0239 0,0.0312 0.32947,0.49679 0.69509,0.94511 1.125,1.375 0.005,0.005 0.026,-0.005 0.0312,0 0.1426,0.14167 0.28503,0.31047 0.4375,0.4375 0.006,0.005 0.0254,-0.005 0.0312,0 0.29051,0.24031 0.61707,0.43261 0.9375,0.625 0.0446,0.027 0.08,0.0676 0.125,0.0937 0.15429,0.0887 0.30913,0.17093 0.46875,0.25 0.20714,0.10359 0.41,0.19319 0.625,0.28125 0.1679,0.0689 0.32845,0.15821 0.5,0.21875 0.0411,0.0143 0.0837,0.0174 0.125,0.0312 0.34816,0.11861 0.70534,0.22279 1.0625,0.3125 l -6.25,0 -1.96875,0 0,0.0312 -0.0312,0 -0.40625,2 0,0.0312 -0.9375,4.71875 -4.8125,23.875 c -0.0237,-0.0399 -0.0378,-0.0853 -0.0625,-0.125 -0.0123,-0.0199 -0.0188,-0.0427 -0.0312,-0.0625 l -0.0312,0 c -1.09121,-1.73089 -3.18544,-2.71871 -5.21875,-2.71875 -1.92775,4e-5 -3.80776,0.59555 -5.28125,1.78125 l 0,0.0312 c -1.67904,1.32837 -2.50003,3.47283 -2.5,5.65625 -1e-5,0.55481 0.07,1.10547 0.1875,1.65625 -1.50012,0.16865 -3.12709,0.28016 -4.9375,0.28125 l -0.0312,0 -4.15625,-0.0937 27.5,-54.65625 1.8125,-3.59375 -4.0625,0 -29.125,0 z m 16.75,5 8.34375,0 -27.46875,54.5625 2.21875,1.125 -0.0625,2.5 8.1875,0.15625 0.0312,0 0.0312,0 c 2.04547,0 3.94716,-0.10593 5.71875,-0.3125 l 0.0312,0 c 2.0253,-0.26994 3.9072,-0.94455 5.09375,-2.5625 l 2.90625,-4 -3.96875,0 c -10e-4,-0.0325 0,-0.0264 0,-0.0625 -10e-6,-1.18121 0.24044,-1.50433 0.59375,-1.78125 l 0.0312,0 c 0.56943,-0.4617 1.16236,-0.68748 2.15625,-0.6875 0.86802,2e-5 0.80445,0.0519 1,0.375 l 0.0312,0 0,0.0312 c 0.45214,0.71595 0.59372,1.30015 0.59375,1.90625 -4e-5,1.7326 -0.63407,3.30659 -2.34375,5.0625 -1.5986,1.64178 -3.40337,2.375 -6,2.375 l -26.625,0 27.90625,-55.46875 1.59375,-3.21875 z m -18.71875,0.28125 c -0.5172,0.17518 -1.0395,0.2953 -1.53125,0.65625 -0.75216,0.5521 -1.53125,1.67429 -1.53125,2.84375 l 0,2.5 1.40625,0 c 0.006,0.0697 0.0312,0.0701 0.0312,0.15625 0,1.16765 -0.21512,1.46106 -0.59375,1.75 -0.56506,0.42764 -1.19357,0.65629 -2.21875,0.65625 -0.83426,3e-5 -0.79005,-0.0462 -0.9375,-0.3125 -0.006,-0.0104 0.006,-0.021 0,-0.0312 -0.41122,-0.73867 -0.59375,-1.38535 -0.59375,-2.0625 0,-1.72868 0.57412,-3.05507 2.03125,-4.46875 0.95319,-0.9247 2.29724,-1.40982 3.9375,-1.6875 z m 44.46875,2.875 c 0.0303,0 0.0328,-3.7e-4 0.0625,0 0.94126,0.0117 1.69665,0.20327 2.375,0.65625 0.24207,0.16165 0.45522,0.36149 0.6875,0.59375 0.22747,0.22748 0.43445,0.45804 0.59375,0.6875 0.32516,0.45955 0.50342,0.90918 0.59375,1.46875 0.044,0.2677 0.0611,0.56484 0.0625,0.875 -10e-6,1.27988 -0.36105,2.08612 -1.28125,2.96875 -0.0406,0.0384 -0.0845,0.0573 -0.125,0.0937 -0.20495,0.18714 -0.41727,0.36341 -0.625,0.5 -0.1896,0.12194 -0.39095,0.22846 -0.59375,0.3125 -0.17711,0.0734 -0.3688,0.14171 -0.5625,0.1875 -0.341,0.0804 -0.70526,0.12306 -1.125,0.125 l -0.0312,0 c -0.0113,0 -0.0201,5e-5 -0.0312,0 -0.30574,10e-6 -0.58866,-0.018 -0.84375,-0.0625 -0.0103,-0.002 -0.021,0.002 -0.0312,0 -0.25281,-0.0461 -0.49793,-0.12408 -0.71875,-0.21875 -0.008,-0.003 -0.023,0.003 -0.0312,0 -0.0795,-0.0349 -0.14178,-0.11456 -0.21875,-0.15625 -0.36595,-0.19822 -0.69913,-0.44912 -1.0625,-0.8125 -0.43977,-0.43976 -0.76762,-0.85512 -0.96875,-1.3125 -0.0936,-0.22777 -0.17315,-0.4615 -0.21875,-0.71875 -0.002,-0.009 0.002,-0.0218 0,-0.0312 -0.0439,-0.25949 -0.061,-0.53989 -0.0625,-0.84375 0,-0.0114 -6e-5,-0.0199 0,-0.0312 0,-0.30873 0.0195,-0.57884 0.0625,-0.84375 0.002,-0.0103 -0.002,-0.021 0,-0.0312 0.0446,-0.26314 0.12635,-0.516 0.21875,-0.75 0.003,-0.008 -0.003,-0.0231 0,-0.0312 0.20253,-0.48416 0.54095,-0.92859 0.96875,-1.375 0.86176,-0.89839 1.67841,-1.23399 2.90625,-1.25 z m 154.125,12.3125 c -2.75976,7e-5 -5.45668,0.62403 -8,1.8125 -0.009,0.004 -0.0222,-0.004 -0.0312,0 -4.83477,2.19334 -8.67692,5.92874 -11.40625,10.9375 -3.41599,6.28664 -5.19659,12.90352 -5.25,19.6875 -0.47923,0.92842 -0.92376,1.66269 -1.3125,2.125 -0.53046,0.6308 -1.12357,0.93751 -2.5,0.9375 -0.27402,0 -0.39472,-0.0212 -0.4375,-0.0312 0.0153,0.0179 -0.15627,-0.23222 -0.15625,-1.09375 -4e-5,-0.80839 0.18044,-2.13367 0.59375,-3.8125 l 1.96875,-8.28125 0,-0.0312 c 0.9713,-3.89326 1.49995,-7.3916 1.5,-10.53125 -6e-5,-3.39648 -1.18971,-6.47145 -3.59375,-8.46875 -2.26751,-1.88366 -5.19774,-2.84369 -8.34375,-2.84375 -4.18472,4e-5 -7.95127,1.73788 -11.03125,4.8125 -0.54672,-0.91008 -1.13031,-1.79225 -1.9375,-2.46875 -1.99368,-1.67089 -4.65495,-2.40622 -7.5625,-2.40625 -2.33847,3e-5 -4.55178,0.47524 -6.59375,1.40625 l 0.21875,-1 -3.0625,0 -12.25,0 -2.03125,0 -0.40625,2 -5.71875,27 c -0.91723,2.3369 -1.82619,3.97403 -2.53125,4.8125 -0.53044,0.63079 -1.12358,0.93751 -2.5,0.9375 -0.27403,0 -0.39472,-0.0212 -0.4375,-0.0312 0.0153,0.0179 -0.15627,-0.23222 -0.15625,-1.09375 -4e-5,-0.80837 0.18044,-2.13367 0.59375,-3.8125 l 1.96875,-8.28125 0,-0.0312 c 0.9713,-3.89326 1.49995,-7.3916 1.5,-10.53125 -6e-5,-3.39649 -1.18973,-6.47145 -3.59375,-8.46875 -2.26751,-1.88366 -5.19775,-2.84369 -8.34375,-2.84375 -4.18473,4e-5 -7.95128,1.73788 -11.03125,4.8125 -0.54672,-0.91008 -1.13031,-1.79225 -1.9375,-2.46875 -1.99368,-1.67089 -4.6237,-2.40622 -7.53125,-2.40625 -2.33847,3e-5 -4.58303,0.47524 -6.625,1.40625 l 0.21875,-1 -3.0625,0 -12.25,0 -2,0 -0.4375,2 -9,42.46875 -0.625,3 3.0625,0 12.25,0 2.03125,0 0.40625,-1.96875 5.78125,-27.21875 0,-0.0312 c 0.53132,-1.81458 1.2723,-3.33656 2.1875,-4.5625 0.005,-0.007 -0.005,-0.0245 0,-0.0312 0.79614,-1.04885 1.37211,-1.28615 2.15625,-1.3125 0.0401,0.10926 0.15624,0.37545 0.15625,1.1875 0,0.56172 -0.0752,1.05074 -0.1875,1.5 l 0,0.0625 0,0.0312 -6.21875,29.34375 -0.65625,3 3.09375,0 12.21875,0 2.03125,0 0.4375,-1.96875 5.71875,-27.09375 c 0.26278,-0.93178 0.58175,-1.78006 0.96875,-2.53125 l 0.0312,0 0,-0.0312 c 0.7079,-1.42803 1.40334,-2.37385 1.96875,-2.875 0.56541,-0.50115 0.88564,-0.59374 1.25,-0.59375 0.43186,1e-5 0.22179,-0.053 0.28125,0.0312 0.0595,0.0844 0.31248,0.68573 0.3125,1.84375 -4e-5,1.38809 -0.58993,4.89083 -1.84375,9.90625 -1.29369,5.17464 -2.00006,8.97089 -2,11.75 -3e-5,3.66628 1.1312,6.88763 3.5625,9.03125 2.4313,2.14362 5.82283,3.03125 9.8125,3.03125 1.78664,0 3.52517,-0.3973 5.1875,-1.125 l -0.125,0.625 3.0625,0 12.25,0 2.03125,0 0.40625,-1.96875 5.78125,-27.21875 0,-0.0312 c 0.53132,-1.81458 1.2723,-3.33656 2.1875,-4.5625 0.005,-0.007 -0.005,-0.0245 0,-0.0312 0.78521,-1.03444 1.35819,-1.27983 2.125,-1.3125 0.04,0.10893 0.18749,0.37497 0.1875,1.1875 0,0.56172 -0.0752,1.05074 -0.1875,1.5 l 0,0.0625 0,0.0312 L 464,503.8125 l -0.65625,3 3.09375,0 12.21875,0 2.03125,0 0.4375,-1.96875 5.71875,-27.09375 c 0.2628,-0.93181 0.58175,-1.78008 0.96875,-2.53125 l 0.0312,-0.0312 c 0.70789,-1.42803 1.40335,-2.37385 1.96875,-2.875 0.5654,-0.50115 0.88564,-0.59374 1.25,-0.59375 0.43186,1e-5 0.22179,-0.053 0.28125,0.0312 0.0595,0.0844 0.31248,0.68572 0.3125,1.84375 -4e-5,1.38811 -0.58994,4.89083 -1.84375,9.90625 -1.2937,5.17464 -2.00006,8.97089 -2,11.75 -3e-5,3.66628 1.1312,6.88763 3.5625,9.03125 2.4313,2.14362 5.82283,3.03125 9.8125,3.03125 3.02037,0 5.93706,-1.1075 8.5,-3.09375 0.80805,-0.63391 1.55726,-1.35566 2.28125,-2.15625 0.43181,0.55448 0.9045,1.06564 1.4375,1.53125 2.92947,2.52541 6.84738,3.71875 11.3125,3.71875 5.53734,0 10.62093,-1.801 15.1875,-5.1875 l -0.34375,1.6875 0.0312,0 -0.6875,3.03125 3.09375,0 12.28125,0 1.96875,0 0,-0.0312 0.0312,0 0.40625,-1.96875 6.625,-31.4375 c 0.37999,-0.33596 0.77483,-0.65244 1.125,-0.9375 0.35972,-0.27184 0.68542,-0.47533 0.9375,-0.625 l 0,-0.0625 0,-0.0312 c 0.0552,-0.0345 0.11988,-0.0464 0.1875,-0.0625 0.028,-0.01 0.0643,0.008 0.0937,0 0.18286,-0.0291 0.3932,-0.0451 0.5625,-0.0937 0.17732,1.15224 0.64203,2.25041 1.3125,3.21875 l 0.0312,0 0.0312,0 0,0.0312 c 0.15703,0.21812 0.35118,0.38623 0.53125,0.5625 0.51716,0.50624 1.09626,0.8679 1.75,1.09375 0.88137,0.30449 1.85224,0.40627 2.8125,0.40625 0.27419,0 0.54207,-0.0311 0.8125,-0.0625 0.2522,-0.0293 0.50294,-0.0697 0.75,-0.125 0.0197,-0.004 0.0429,0.005 0.0625,0 0.13835,-0.0322 0.26995,-0.0849 0.40625,-0.125 0.12559,-0.037 0.25146,-0.0815 0.375,-0.125 0.091,-0.032 0.19144,-0.0583 0.28125,-0.0937 0.16977,-0.0672 0.33516,-0.1395 0.5,-0.21875 0.0428,-0.0204 0.0826,-0.0413 0.125,-0.0625 0.44403,-0.22341 0.88414,-0.47635 1.28125,-0.78125 0.15074,-0.11508 0.29486,-0.24923 0.4375,-0.375 l -6.125,28.875 -0.65625,3 3.09375,0 12.21875,0 2.03125,0 0.4375,-1.96875 5.71875,-27.09375 c 0.53501,-1.89689 1.30441,-3.45211 2.25,-4.71875 0.005,-0.007 -0.005,-0.0245 0,-0.0312 0.79493,-1.04724 1.34282,-1.28544 2.125,-1.3125 0.0401,0.10926 0.15624,0.37545 0.15625,1.1875 0,0.56172 -0.0439,1.05072 -0.15625,1.5 l 0,0.0625 -0.0312,0.0312 -6.21875,29.34375 -0.625,3 3.0625,0 12.25,0 2.03125,0 0.40625,-1.96875 5.78125,-27.25 c 0.25407,-0.86322 0.57443,-1.67027 0.9375,-2.375 l 0,-0.0312 c 0.7079,-1.42803 1.43459,-2.37385 2,-2.875 0.56541,-0.50115 0.88564,-0.59374 1.25,-0.59375 0.43186,10e-6 0.19054,-0.053 0.25,0.0312 0.0595,0.0844 0.31248,0.68572 0.3125,1.84375 -4e-5,1.38811 -0.58993,4.89083 -1.84375,9.90625 -1.29369,5.17464 -1.96881,8.97089 -1.96875,11.75 -3e-5,3.66628 1.1312,6.88763 3.5625,9.03125 2.4313,2.14362 5.82283,3.03125 9.8125,3.03125 3.02037,0 5.93706,-1.1075 8.5,-3.09375 0.80805,-0.63391 1.55949,-1.35566 2.28125,-2.15625 2.41932,3.31874 6.10709,5.25 10.4375,5.25 4.43349,0 8.51296,-1.87768 11.96875,-5.25 0.49751,0.96264 1.0312,1.89424 1.8125,2.625 1.9363,1.81106 4.59604,2.625 7.53125,2.625 2.62195,0 5.10255,-0.55573 7.375,-1.625 l -0.25,1.125 3.09375,0 12.21875,0 2.03125,0 0.4375,-1.96875 5.71875,-27.09375 c 0.26284,-0.93185 0.58176,-1.78005 0.96875,-2.53125 l 0.0312,-0.0312 c 0.70791,-1.42803 1.40334,-2.37384 1.96875,-2.875 0.56541,-0.50116 0.88566,-0.59374 1.25,-0.59375 0.43187,10e-6 0.22179,-0.053 0.28125,0.0312 0.0595,0.0844 0.28124,0.68573 0.28125,1.84375 -2e-5,1.38806 -0.55866,4.89084 -1.8125,9.90625 -1.29574,5.18291 -2.00003,9.1019 -2,12.0625 -3e-5,2.89369 0.73641,5.55196 2.28125,7.6875 0.0171,0.0246 0.0452,0.0381 0.0625,0.0625 1.93914,2.72894 5.30175,4 9.15625,4 2.53078,0 4.98388,-0.94676 7.125,-2.59375 2.43226,-1.87099 3.80895,-4.81769 4.28125,-8.3125 l 0.75,-5.59375 -4.5625,3.125 c -0.0886,-9.8e-4 -0.61137,0.15632 -1.4375,0.15625 -0.55677,10e-6 -0.7371,-0.054 -0.78125,-0.0625 -0.0796,-0.15719 -0.15627,-0.42128 -0.15625,-1.0625 -2e-5,-0.80843 0.18047,-2.13366 0.59375,-3.8125 l 2.03125,-8.21875 -0.0312,0 c 0.97357,-3.8452 1.49998,-7.3416 1.5,-10.53125 l 0,-0.0312 c -2e-5,-3.44197 -1.17806,-6.52425 -3.59375,-8.53125 -2.27235,-1.88768 -5.20605,-2.84369 -8.375,-2.84375 -2.16214,3e-5 -4.21018,0.50886 -6.125,1.375 l 0.21875,-1.03125 -3.09375,0 -12.21875,0 -2.03125,0 -0.40625,2 -5.8125,27.375 c -0.70459,2.26418 -1.52669,3.87272 -2.28125,4.75 -0.79472,0.92398 -1.32455,1.12501 -2.09375,1.125 -0.72484,10e-6 -0.77536,-0.11883 -0.78125,-0.125 -0.006,-0.006 -0.18751,-0.21233 -0.1875,-1.03125 -10e-6,-0.61537 0.0767,-1.29869 0.28125,-2.09375 l 0.0312,-0.0625 0,-0.0625 6.09375,-28.84375 0.65625,-3.03125 -3.09375,0 -12.25,0 -2.03125,0 -0.15625,0.78125 c -1.59462,-0.81363 -3.41067,-1.18745 -5.59375,-1.1875 -5.21582,7e-5 -9.94304,1.8804 -13.65625,5.46875 -3.58768,3.46714 -6.30753,7.83012 -8.1875,13 -0.85008,2.34507 -1.49331,4.73595 -1.90625,7.125 -0.37756,2.15726 -0.59252,4.31887 -0.625,6.5 -0.4876,0.92842 -0.92375,1.66269 -1.3125,2.125 -0.53045,0.63079 -1.09232,0.93751 -2.46875,0.9375 -0.27402,0 -0.39472,-0.0212 -0.4375,-0.0312 0.0153,0.0179 -0.18752,-0.23222 -0.1875,-1.09375 -4e-5,-0.80839 0.18044,-2.13367 0.59375,-3.8125 l 2,-8.28125 0,-0.0312 c 0.97129,-3.89323 1.4687,-7.39162 1.46875,-10.53125 -6e-5,-3.39648 -1.18971,-6.47145 -3.59375,-8.46875 -2.26751,-1.88366 -5.16649,-2.84369 -8.3125,-2.84375 -4.18472,4e-5 -7.98252,1.73788 -11.0625,4.8125 -0.54527,-0.90459 -1.13428,-1.79557 -1.9375,-2.46875 -1.99368,-1.67089 -4.6237,-2.40622 -7.53125,-2.40625 -2.33817,3e-5 -4.55199,0.47548 -6.59375,1.40625 l 0.21875,-1 -3.09375,0 -12.21875,0 -2.03125,0 -0.40625,2 -0.59375,2.8125 c -0.31423,-0.63987 -0.73031,-1.27808 -1.1875,-1.875 -0.18559,-0.24228 -0.37969,-0.4421 -0.59375,-0.65625 -0.0102,-0.0102 -0.021,-0.0211 -0.0312,-0.0312 -0.20844,-0.20728 -0.42406,-0.41464 -0.65625,-0.59375 -0.007,-0.005 -0.0243,0.005 -0.0312,0 -0.23211,-0.17784 -0.46626,-0.35039 -0.71875,-0.5 -0.008,-0.005 -0.0235,0.005 -0.0312,0 -0.5147,-0.3057 -1.04681,-0.56189 -1.625,-0.75 -0.009,-0.003 -0.0218,0.003 -0.0312,0 -0.87224,-0.28044 -1.8096,-0.43747 -2.75,-0.4375 -0.86007,2e-5 -1.70532,0.11227 -2.53125,0.3125 -0.54466,0.12534 -1.09918,0.29996 -1.625,0.5 -0.78874,0.30006 -1.54209,0.67676 -2.28125,1.125 l 0.40625,-1.90625 -0.0312,0 0,-0.0312 -3.0625,0 -12.1875,0 -2.0625,0 0,0.0312 -0.4375,1.96875 -5.5625,26.46875 c -2.26406,2.52114 -4.39027,4.41893 -6.28125,5.65625 -1.74121,1.13178 -3.94821,1.75003 -6.84375,1.75 -1.41446,2e-5 -2.1595,-0.31669 -2.625,-0.71875 -10e-4,-0.001 -0.0294,-0.029 -0.0312,-0.0312 -0.0981,-0.11454 -0.6875,-1.31441 -0.6875,-3.875 0,-0.18737 0.0437,-0.85689 0.0625,-1.21875 4.84145,-0.70645 9.24249,-2.65084 12.96875,-5.875 4.34137,-3.78714 6.71873,-8.73961 6.71875,-14.25 -2e-5,-2.92882 -0.93018,-5.62602 -2.8125,-7.59375 -0.006,-0.006 -0.0255,0.006 -0.0312,0 -2.20582,-2.32055 -5.54894,-3.03119 -9.78125,-3.03125 z m -1.1875,5.125 c -0.76387,0.36112 -1.45632,0.85281 -2.09375,1.4375 -1.30961,1.20126 -2.44602,2.77755 -3.5,4.75 l 0.0312,0 c -2.06425,3.83363 -3.56841,8.06972 -4.46875,12.6875 l -0.40625,2.1875 -0.0937,0 -0.0937,0.9375 0,0.0625 -0.0937,1.15625 c -0.14085,1.63334 -0.21875,2.78805 -0.21875,3.625 0,3.19703 0.37659,5.78606 2.34375,7.59375 l 0.0312,0 0,0.0312 c 1.58249,1.41139 3.70564,2.00004 5.96875,2 1.61727,10e-6 3.1413,-0.22851 4.59375,-0.5625 -3.04248,1.68644 -6.22516,2.6875 -9.71875,2.6875 -3.60896,0 -6.14944,-0.87775 -8.03125,-2.5 -0.62551,-0.54643 -1.16322,-1.23992 -1.59375,-2.125 1.28392,-2.24136 2.41404,-4.8308 3.40625,-7.78125 l 1.09375,-3.3125 -3.46875,0 -1.875,0 c 0.59233,-4.36915 2.02193,-8.62828 4.3125,-12.84375 2.29841,-4.21796 5.28905,-7.04648 9.125,-8.78125 l 0.0312,-0.0312 c 1.54694,-0.72569 3.11104,-1.07968 4.71875,-1.21875 z m -120.15625,0.21875 c 2.09725,3e-5 3.40282,0.4876 4.3125,1.25 0.90968,0.7624 1.57312,1.91585 1.90625,3.9375 l 0.75,4.46875 c -0.41522,0.89393 -0.81402,1.78937 -1.09375,2.78125 l -0.0312,0.0937 0,0.0937 -5.34375,25.25 -7.125,0 5.53125,-26.21875 0.0312,0 c 0.007,-0.0299 -0.007,-0.0639 0,-0.0937 0.20444,-0.8503 0.3125,-1.72522 0.3125,-2.625 -10e-6,-1.52669 -0.20655,-2.92463 -1.0625,-4.1875 -0.85595,-1.26287 -2.51066,-2.0312 -3.96875,-2.03125 -0.68388,2e-5 -1.2916,0.30601 -1.9375,0.5 2.21292,-2.17623 4.6427,-3.2187 7.71875,-3.21875 z m 63.84375,0 c 2.09724,3e-5 3.43407,0.4876 4.34375,1.25 0.90968,0.7624 1.57312,1.91585 1.90625,3.9375 l 0.75,4.46875 c -0.41523,0.89394 -0.81402,1.7894 -1.09375,2.78125 l -0.0312,0.0937 0,0.0937 -5.34375,25.25 -7.125,0 5.53125,-26.21875 0.0312,0 c 0.007,-0.0299 -0.007,-0.0639 0,-0.0937 0.20444,-0.8503 0.3125,-1.72522 0.3125,-2.625 -2e-5,-1.52668 -0.20655,-2.92463 -1.0625,-4.1875 -0.85595,-1.26287 -2.51066,-2.0312 -3.96875,-2.03125 -0.68388,2e-5 -1.2916,0.30601 -1.9375,0.5 2.21292,-2.17623 4.61145,-3.2187 7.6875,-3.21875 z m 128.59375,0 c 2.09724,3e-5 3.40282,0.4876 4.3125,1.25 0.90968,0.7624 1.60437,1.91585 1.9375,3.9375 l 0.71875,4.4375 c -0.42063,0.90163 -0.81129,1.81099 -1.09375,2.8125 l 0,0.0937 -0.0312,0.0937 -5.3125,25.25 -7.125,0 5.53125,-26.21875 0.0312,-0.0937 -0.0312,0 c 0.20442,-0.85028 0.3125,-1.72522 0.3125,-2.625 -10e-6,-1.52669 -0.20655,-2.92463 -1.0625,-4.1875 -0.85595,-1.26287 -2.51066,-2.0312 -3.96875,-2.03125 -0.68388,2e-5 -1.2916,0.30601 -1.9375,0.5 2.21476,-2.18097 4.63952,-3.2187 7.71875,-3.21875 z m 57.15625,0 c 1.29433,3e-5 2.14162,0.15363 2.78125,0.34375 -0.17103,-0.009 -0.3304,-0.0937 -0.5,-0.0937 -2.4679,5e-5 -4.68624,1.36144 -6.46875,3.375 -4.03759,4.56561 -6.42253,10.93774 -7.375,18.875 -0.15127,1.27028 -0.21875,2.61189 -0.21875,4 0,2.83737 0.5388,5.28292 2.3125,7 l -0.0312,0.0312 c 0.0163,0.0163 0.046,0.0152 0.0625,0.0312 1.04852,1.02004 2.55471,1.59378 4,1.59375 1.06402,10e-6 2.10756,-0.27179 3.09375,-0.65625 -2.65017,2.68185 -5.41327,3.875 -8.53125,3.875 -3.7697,0 -5.83009,-1.27433 -7.3125,-4.6875 1.26462,-2.22961 2.39044,-4.79106 3.375,-7.71875 l 1.125,-3.3125 -3.5,0 -1.8125,0 c 0.058,-0.40438 0.11689,-0.81531 0.1875,-1.21875 0.36132,-2.09037 0.90257,-4.17087 1.65625,-6.25 1.65937,-4.56322 4.00676,-8.23232 7,-11.125 2.86773,-2.77129 6.08127,-4.06245 10.15625,-4.0625 z M 432.78125,464 c 2.2182,4e-5 3.79779,0.58496 5.125,1.6875 1.19054,0.98912 1.81246,2.27015 1.8125,4.625 -5e-5,2.60336 -0.44002,5.72872 -1.34375,9.34375 l 0,0.0312 -2,8.28125 c -0.47165,1.91583 -0.71883,3.54101 -0.71875,5 -4e-5,1.57177 0.32282,3.10918 1.375,4.34375 1.05218,1.23457 2.69292,1.78126 4.21875,1.78125 0.98307,10e-6 1.93948,-0.16848 2.84375,-0.46875 L 444,499.09375 c -0.41613,0.4378 -0.82491,0.85403 -1.25,1.1875 -1.86132,1.44251 -3.59139,2.03125 -5.4375,2.03125 -3.25494,0 -5.30901,-0.73118 -6.5,-1.78125 -1.19099,-1.05007 -1.87502,-2.56014 -1.875,-5.28125 -4e-5,-1.86627 0.59348,-5.53029 1.84375,-10.53125 1.29,-5.16014 1.99994,-8.64187 2,-11.125 -3e-5,-1.74531 -0.28637,-3.35144 -1.25,-4.71875 -0.96363,-1.36731 -2.72947,-2.15621 -4.34375,-2.15625 -0.57167,10e-6 -1.11057,0.18918 -1.65625,0.34375 2.13219,-2.10065 4.44673,-3.06247 7.25,-3.0625 z m 63.875,0 c 2.21821,4e-5 3.79779,0.58496 5.125,1.6875 1.19054,0.98912 1.81246,2.27014 1.8125,4.625 -5e-5,2.60336 -0.44002,5.72872 -1.34375,9.34375 l 0,0.0312 -2,8.28125 c -0.47165,1.91583 -0.71881,3.54103 -0.71875,5 -3e-5,1.57177 0.32282,3.10918 1.375,4.34375 1.05218,1.23457 2.69292,1.78126 4.21875,1.78125 1.17565,10e-6 2.32307,-0.23462 3.375,-0.65625 -0.61521,0.7202 -1.24001,1.34561 -1.875,1.84375 -1.86132,1.44251 -3.59137,2.03125 -5.4375,2.03125 -3.25494,0 -5.30901,-0.73118 -6.5,-1.78125 -1.19099,-1.05007 -1.87502,-2.56014 -1.875,-5.28125 -4e-5,-1.86627 0.59347,-5.53029 1.84375,-10.53125 1.28999,-5.16014 1.99992,-8.64189 2,-11.125 -4e-5,-1.7453 -0.28637,-3.35144 -1.25,-4.71875 -0.96363,-1.36731 -2.72947,-2.15621 -4.34375,-2.15625 -0.57167,10e-6 -1.11057,0.18918 -1.65625,0.34375 2.1322,-2.10065 4.44674,-3.06247 7.25,-3.0625 z M 625.25,464 c 2.21821,4e-5 3.79779,0.58496 5.125,1.6875 1.19054,0.98912 1.78121,2.27014 1.78125,4.625 -5e-5,2.60336 -0.44002,5.72872 -1.34375,9.34375 l 0,0.0312 -1.96875,8.28125 c -0.47165,1.91583 -0.75006,3.54103 -0.75,5 -3e-5,1.57177 0.32282,3.10918 1.375,4.34375 1.05218,1.23457 2.72417,1.78126 4.25,1.78125 1.16517,10e-6 2.29937,-0.24208 3.34375,-0.65625 -0.61,0.7141 -1.21427,1.34798 -1.84375,1.84375 -0.005,0.004 -0.0259,-0.004 -0.0312,0 -1.8522,1.42915 -3.56805,2.03125 -5.40625,2.03125 -3.25494,0 -5.30901,-0.73118 -6.5,-1.78125 -1.19099,-1.05007 -1.87502,-2.56014 -1.875,-5.28125 -4e-5,-1.86627 0.59348,-5.53029 1.84375,-10.53125 1.29,-5.16014 1.96867,-8.64189 1.96875,-11.125 -4e-5,-1.7453 -0.25512,-3.35144 -1.21875,-4.71875 -0.96363,-1.36731 -2.72947,-2.15621 -4.34375,-2.15625 -0.57167,10e-6 -1.11057,0.18918 -1.65625,0.34375 2.13154,-2.09893 4.44781,-3.06247 7.25,-3.0625 z m 87.5,0 c 2.25063,4e-5 3.86513,0.58898 5.1875,1.6875 1.17269,0.97429 1.77483,2.29174 1.78125,4.6875 3e-5,0.0126 0,0.0186 0,0.0312 -0.003,2.65752 -0.4455,5.77232 -1.34375,9.3125 l 0,0.0312 -2.03125,8.21875 c -0.47162,1.91582 -0.71879,3.54107 -0.71875,5 -4e-5,1.47914 0.29775,2.91325 1.15625,4.125 l 0.0312,0.0625 0.0312,0.0312 c 1.01365,1.29525 2.54729,1.70802 4.0625,1.8125 -0.39126,0.75699 -0.85278,1.32425 -1.40625,1.75 -1.45362,1.11815 -2.75343,1.5625 -4.09375,1.5625 -2.91327,0 -4.29032,-0.70428 -5.125,-1.90625 l 0,-0.0312 -0.0312,-0.0312 c -0.86023,-1.17303 -1.34378,-2.66795 -1.34375,-4.78125 -3e-5,-2.12718 0.59557,-5.85106 1.84375,-10.84375 1.29002,-5.16015 1.96871,-8.64184 1.96875,-11.125 -2e-5,-1.74531 -0.25512,-3.35143 -1.21875,-4.71875 -0.96363,-1.36732 -2.72947,-2.15621 -4.34375,-2.15625 -0.43081,10e-6 -0.83231,0.16037 -1.25,0.25 2.04782,-1.88228 4.18348,-2.96872 6.84375,-2.96875 z m -175.0625,0.0625 c 1.086,0.28677 1.80602,0.66227 2.125,1 l 0.0312,0 c 0.92544,0.96178 1.40623,2.17288 1.40625,4.15625 -2e-5,4.16032 -1.55647,7.45806 -5,10.46875 -0.61274,0.53018 -1.26409,0.96219 -1.90625,1.40625 0.3153,-0.31116 0.67028,-0.5658 0.96875,-0.90625 l 0.0312,0 c 0.005,-0.006 -0.005,-0.0258 0,-0.0312 2.84226,-3.23025 4.34372,-7.19654 4.34375,-11.5 -2e-5,-1.31023 -0.17429,-2.56601 -0.96875,-3.71875 -0.25238,-0.36619 -0.65958,-0.60868 -1.03125,-0.875 z m -145.0625,0.28125 7.125,0 -0.3125,1.40625 -1.90625,9.25 0.25,-0.28125 c -0.20486,0.55364 -0.45993,1.07098 -0.625,1.65625 l 0,0.0937 -0.0312,0.0937 -5.3125,25.25 -7.125,0 7.9375,-37.46875 z m 63.875,0 7.125,0 -0.3125,1.40625 -1.90625,9.25 0.25,-0.28125 c -0.20486,0.55364 -0.45993,1.07098 -0.625,1.65625 l 0,0.0937 -0.0312,0.0937 -5.3125,25.25 -7.125,0 0.0625,-0.3125 c 2.43047,-2.90059 4.38388,-6.78805 6,-11.59375 l 1.09375,-3.3125 -3.46875,0 -0.46875,0 4.71875,-22.25 z m 128.5625,0 7.125,0 -0.28125,1.40625 -1.9375,9.25 0.28125,-0.3125 c -0.20967,0.56383 -0.4567,1.09077 -0.625,1.6875 l -0.0312,0.0937 0,0.0937 -5.34375,25.25 -7.125,0 7.9375,-37.46875 z m 86.65625,0 7.125,0 -5.4375,25.75 -0.0312,0 c -0.008,0.0314 0.008,0.0623 0,0.0937 -0.2781,1.10805 -0.43752,2.18134 -0.4375,3.25 -10e-6,1.61438 0.40705,3.25827 1.5625,4.46875 1.15545,1.21048 2.80838,1.68751 4.40625,1.6875 0.55479,0 1.06056,-0.24504 1.59375,-0.375 -2.36595,2.10163 -4.9616,3.09375 -8.1875,3.09375 -2.06966,0 -3.28237,-0.49312 -4.125,-1.28125 -0.84263,-0.78813 -1.48421,-2.07648 -1.71875,-4.28125 l -0.59375,-5.78125 c 0.14185,-0.44915 0.36188,-0.84003 0.46875,-1.3125 l 0,-0.0312 4.0625,-19.15625 -2.4375,-0.53125 2.5,0 c -7e-5,-1.27253 -0.46488,-2.2431 -1.0625,-3.21875 -0.008,-0.0133 -0.0236,-0.0181 -0.0312,-0.0312 l 1.84375,0.1875 0.5,-2.53125 z m 21.84375,0 7.125,0 -0.28125,1.40625 2.4375,0.5 1.40625,1.25 c -0.58542,0.29718 -1.16336,0.62562 -1.65625,1.0625 -1.25014,1.10808 -2.23435,2.58631 -3.125,4.375 -0.004,0.009 0.004,0.0227 0,0.0312 -0.002,0.005 -0.0289,-0.005 -0.0312,0 -0.5448,1.06377 -0.97081,2.19482 -1.3125,3.40625 l -0.0312,0.0937 0,0.0937 -5.34375,25.25 -7.125,0 0.1875,-0.90625 c 2.43654,-2.83941 4.39828,-6.51264 5.9375,-11 l -2.375,-0.8125 0,-2.5 -0.53125,0 4.71875,-22.25 z m -320.375,0.0312 7.03125,0 -7.6875,37.40625 -6.8125,0 7.46875,-37.40625 z m 179.84375,0 7.15625,0 -0.46875,2.25 -0.53125,2.625 -0.28125,1.34375 -0.15625,0.15625 0,0.0312 -0.15625,0.71875 0,0.0312 -6.40625,30.25 -7.03125,0 1.25,-5.96875 c 1.3227,-1.64023 2.58712,-3.43854 3.78125,-5.40625 l -2.125,-1.28125 0,-1.15625 4.96875,-23.59375 z m 19.3125,0 c 0.33763,10e-6 0.62542,0.002 0.875,0.0312 0.0178,0.002 0.0451,-0.002 0.0625,0 0.50641,0.0801 0.84125,0.23052 1.125,0.46875 0.14507,0.1218 0.27969,0.27228 0.40625,0.4375 0.77164,1.00748 0.96874,1.72746 0.96875,2.21875 -10e-6,1.1768 -0.19059,2.01818 -0.5625,2.6875 -0.0393,0.0708 -0.11301,0.12034 -0.15625,0.1875 -0.099,0.14565 -0.19718,0.30488 -0.3125,0.4375 l 0,0.0312 -0.0312,0 c -0.52254,0.61633 -0.90802,0.90257 -1.4375,1 -0.17649,0.0325 -0.37778,0.0312 -0.59375,0.0312 -0.39215,0 -0.64261,-0.0312 -0.8125,-0.0625 -0.12991,-0.0239 -0.1804,-0.0213 -0.21875,-0.0312 -0.0388,-0.0115 -0.0209,-0.0297 -0.0312,-0.0312 -0.004,-6.6e-4 -0.0289,0 -0.0312,0 -0.22958,-0.37306 -0.36911,-0.69604 -0.40625,-0.9375 -0.12153,-0.81965 -0.28882,-1.53923 -0.59375,-2.25 -0.005,-0.0129 -0.0263,-0.0183 -0.0312,-0.0312 -0.0131,-0.0299 -0.0277,-0.0608 -0.0312,-0.0937 -0.005,-0.009 0.004,-0.0221 0,-0.0312 -0.002,-0.01 0.004,-0.0219 0,-0.0312 l -0.0625,0.0312 c -0.0687,-0.15348 -0.1593,-0.3191 -0.25,-0.46875 -0.18569,-0.30638 -0.41237,-0.57202 -0.6875,-0.8125 -0.13117,-0.11741 -0.25456,-0.22261 -0.40625,-0.3125 -0.2772,-0.16426 -0.56517,-0.26681 -0.84375,-0.34375 -0.0304,-0.008 -0.0634,-0.0237 -0.0937,-0.0312 -0.0303,-0.007 -0.0636,0.007 -0.0937,0 -0.27332,-0.0611 -0.52766,-0.11586 -0.78125,-0.125 0.30311,-0.22282 0.55801,-0.50116 0.875,-0.71875 0.20151,-0.13326 0.39381,-0.23254 0.59375,-0.34375 0.13312,-0.0736 0.273,-0.15505 0.40625,-0.21875 0.0126,-0.006 0.0186,-0.0252 0.0312,-0.0312 0.19922,-0.0939 0.3931,-0.14587 0.59375,-0.21875 0.13612,-0.0509 0.26897,-0.1146 0.40625,-0.15625 0.68315,-0.19963 1.38397,-0.28122 2.125,-0.28125 z m -37.6875,3.96875 c 0.0239,0.14676 0.0312,0.0588 0.0312,0.3125 -3e-5,3.20911 -0.9699,5.81171 -3.09375,8.21875 l -0.0312,0 c -1.02213,1.17143 -2.04191,2.02513 -3.125,2.625 0.76049,-2.55721 1.62387,-5.01128 2.8125,-7.21875 l 0.0312,0 c 0.88158,-1.6498 1.74241,-2.79992 2.4375,-3.4375 0.45547,-0.41779 0.66888,-0.41312 0.9375,-0.5 z m 129.5,0.84375 c 0.56877,10e-6 0.83803,0.0671 0.9375,0.0937 0.23386,0.3838 0.32592,0.59728 0.34375,0.625 l -3.96875,18.625 0,0.0312 c -0.44518,1.94693 -1.2074,3.28951 -2.1875,4.25 -1.00598,0.95886 -1.82033,1.28126 -2.84375,1.28125 -0.35688,1e-5 -0.33364,0.0101 -0.5,-0.15625 l -0.0312,-0.0312 -0.0312,-0.0312 c -0.28721,-0.27209 -0.78125,-1.26922 -0.78125,-3.4375 0,-1.21107 0.0622,-2.35379 0.1875,-3.40625 0.87249,-7.27074 3.00456,-12.5924 6.15625,-16.15625 1.19272,-1.34018 2.03836,-1.68749 2.71875,-1.6875 z"
           id="path4935"
           inkscape:connector-curvature="0" />
      </g>
      <g
         style="font-size:144px;font-style:normal;font-variant:normal;font-weight:normal;font-stretch:normal;line-height:125%;letter-spacing:0px;word-spacing:0px;fill:#1397b7;fill-opacity:1;stroke:none;font-family:SimSun-ExtB;-inkscape-font-specification:SimSun-ExtB"
         id="g4851"
         transform="matrix(2.6544999,0,0,2.6544999,-661.99131,-776.11191)">
        <path
           d="m 263.09375,480.28406 3.07812,0.0625 c 0.73958,0 1.42187,-0.0365 2.04688,-0.10938 0.62499,-0.0833 1.05207,-0.28124 1.28125,-0.59375 -0.1146,10e-6 -0.2396,-0.0677 -0.375,-0.20312 -0.13543,-0.14583 -0.20314,-0.40104 -0.20313,-0.76563 -1e-5,-0.63541 0.1927,-1.10416 0.57813,-1.40625 0.3854,-0.31249 0.85415,-0.46874 1.40625,-0.46875 0.55207,10e-6 0.9479,0.19792 1.1875,0.59375 0.24998,0.39584 0.37498,0.80209 0.375,1.21875 -2e-5,0.91667 -0.38543,1.77084 -1.15625,2.5625 -0.77085,0.79167 -1.75001,1.1875 -2.9375,1.1875 l -11.54688,0 11.1875,-22.26562 -2.875,-0.0781 c -1.95834,2e-5 -2.9375,0.23961 -2.9375,0.71875 0.10417,2e-5 0.21875,0.0729 0.34375,0.21875 0.125,0.14586 0.1875,0.40627 0.1875,0.78125 0,0.63544 -0.19792,1.10419 -0.59375,1.40625 -0.38542,0.29169 -0.85417,0.43752 -1.40625,0.4375 -0.55208,2e-5 -0.94271,-0.1979 -1.17187,-0.59375 -0.22917,-0.40623 -0.34375,-0.82289 -0.34375,-1.25 0,-0.89581 0.34896,-1.68227 1.04687,-2.35937 0.69792,-0.67706 1.66146,-1.0156 2.89063,-1.01563 l 10.96875,0 -11.03125,21.92188"
           style="font-size:32px;text-align:center;text-anchor:middle;fill:#1397b7;fill-opacity:1;stroke:none;font-family:'Lobster 1.4';-inkscape-font-specification:'Lobster 1.4'"
           id="path4853"
           inkscape:connector-curvature="0" />
        <path
           d="m 292.01562,476.62781 c -1.35418,3.94792 -3.4948,5.92187 -6.42187,5.92187 -1.88543,0 -2.9323,-0.97916 -3.14063,-2.9375 -1.39584,1.95834 -3.02604,2.9375 -4.89062,2.9375 -1.85417,0 -3.11458,-0.91145 -3.78125,-2.73437 -0.23958,-0.65625 -0.35937,-1.40104 -0.35938,-2.23438 10e-6,-0.84374 0.0729,-1.68228 0.21875,-2.51562 0.14584,-0.84374 0.3698,-1.68229 0.67188,-2.51563 0.66667,-1.83332 1.61979,-3.34894 2.85937,-4.54687 1.23958,-1.1979 2.73437,-1.79686 4.48438,-1.79688 0.91666,2e-5 1.57812,0.15627 1.98437,0.46875 0.40624,0.3021 0.60937,0.68752 0.60938,1.15625 l 0,0.23438 0.34375,-1.70313 4.60937,0 -2.29687,10.875 c -0.0938,0.36459 -0.14064,0.70834 -0.14063,1.03125 -1e-5,0.91667 0.43749,1.37501 1.3125,1.375 1.13541,10e-6 1.99999,-1.0052 2.59375,-3.01562 l 1.34375,0 m -8.0625,-7.21875 c -1e-5,-0.19791 -0.0938,-0.44791 -0.28125,-0.75 -0.17709,-0.31249 -0.5625,-0.46874 -1.15625,-0.46875 -0.59375,10e-6 -1.17188,0.31772 -1.73437,0.95312 -1.35417,1.53126 -2.20313,3.72918 -2.54688,6.59375 -0.0521,0.43751 -0.0781,0.90105 -0.0781,1.39063 0,0.94792 0.19791,1.60938 0.59375,1.98437 0.22916,0.22917 0.51562,0.34376 0.85937,0.34375 0.63542,10e-6 1.21354,-0.24999 1.73438,-0.75 0.52083,-0.51041 0.8802,-1.20312 1.07812,-2.07812 l 1.53125,-7.21875"
           style="font-size:32px;text-align:center;text-anchor:middle;fill:#1397b7;fill-opacity:1;stroke:none;font-family:'Lobster 1.4';-inkscape-font-specification:'Lobster 1.4'"
           id="path4855"
           inkscape:connector-curvature="0" />
        <path
           d="m 298.5625,466.08093 c 2.56249,2e-5 3.84374,0.96877 3.84375,2.90625 -10e-6,0.81252 -0.16668,1.41147 -0.5,1.79688 -0.33334,0.37501 -0.70834,0.56251 -1.125,0.5625 -0.41668,10e-6 -0.81772,-0.12499 -1.20313,-0.375 0.26041,-0.68749 0.39062,-1.3177 0.39063,-1.89063 -10e-6,-0.87498 -0.3073,-1.31248 -0.92188,-1.3125 -0.60417,2e-5 -1.24479,0.5521 -1.92187,1.65625 -0.96876,1.56251 -1.63542,3.50522 -2,5.82813 -0.10417,0.69792 -0.15625,1.46354 -0.15625,2.29687 0,1.54167 0.73437,2.31251 2.20312,2.3125 1.22916,10e-6 2.26041,-0.27083 3.09375,-0.8125 0.84374,-0.55208 1.73437,-1.35937 2.67188,-2.42187 l 1.09375,0 c -2.39584,3.94792 -5.32813,5.92187 -8.79688,5.92187 -1.52083,0 -2.73437,-0.39062 -3.64062,-1.17187 -0.90625,-0.79167 -1.35937,-2.09375 -1.35938,-3.90625 10e-6,-2.44791 0.6198,-4.81249 1.85938,-7.09375 0.9375,-1.71874 2.22395,-2.95311 3.85937,-3.70313 0.84375,-0.39581 1.71354,-0.59373 2.60938,-0.59375"
           style="font-size:32px;text-align:center;text-anchor:middle;fill:#1397b7;fill-opacity:1;stroke:none;font-family:'Lobster 1.4';-inkscape-font-specification:'Lobster 1.4'"
           id="path4857"
           inkscape:connector-curvature="0" />
        <path
           d="m 315.15625,478.08093 c -10e-6,0.91667 0.39061,1.37501 1.17187,1.375 0.71874,10e-6 1.27082,-0.22916 1.65625,-0.6875 0.38541,-0.45833 0.76561,-1.17187 1.14063,-2.14062 l 1.34375,0 c -1.2396,3.59375 -2.91668,5.54687 -5.03125,5.85937 -0.33335,0.0417 -0.7448,0.0625 -1.23438,0.0625 -0.48959,0 -0.97396,-0.10416 -1.45312,-0.3125 -1.33334,-0.5625 -2.00001,-1.66145 -2,-3.29687 -10e-6,-0.875 0.23958,-2.27083 0.71875,-4.1875 0.47916,-1.91666 0.71874,-3.23957 0.71875,-3.96875 -10e-6,-1.09374 -0.38543,-1.64061 -1.15625,-1.64063 -0.77084,2e-5 -1.45834,0.60939 -2.0625,1.82813 -0.17709,0.34376 -0.32292,0.71876 -0.4375,1.125 l -2.17188,10.26562 -4.60937,0 4.64062,-21.76562 4.73438,-0.64063 -1.71875,8.0625 c 1.04166,-1.18748 2.28645,-1.78123 3.73437,-1.78125 1.02083,2e-5 1.86978,0.28127 2.54688,0.84375 0.67707,0.56252 1.01561,1.39585 1.01562,2.5 -1e-5,1.10418 -0.17709,2.35418 -0.53125,3.75 l -0.76562,3.09375 c -0.16668,0.67709 -0.25001,1.22917 -0.25,1.65625"
           style="font-size:32px;text-align:center;text-anchor:middle;fill:#1397b7;fill-opacity:1;stroke:none;font-family:'Lobster 1.4';-inkscape-font-specification:'Lobster 1.4'"
           id="path4859"
           inkscape:connector-curvature="0" />
        <path
           d="m 337.26562,476.62781 c -1.35418,3.94792 -3.4948,5.92187 -6.42187,5.92187 -1.88543,0 -2.9323,-0.97916 -3.14063,-2.9375 -1.39584,1.95834 -3.02604,2.9375 -4.89062,2.9375 -1.85417,0 -3.11458,-0.91145 -3.78125,-2.73437 -0.23958,-0.65625 -0.35937,-1.40104 -0.35938,-2.23438 10e-6,-0.84374 0.0729,-1.68228 0.21875,-2.51562 0.14584,-0.84374 0.3698,-1.68229 0.67188,-2.51563 0.66667,-1.83332 1.61979,-3.34894 2.85937,-4.54687 1.23958,-1.1979 2.73437,-1.79686 4.48438,-1.79688 0.91666,2e-5 1.57812,0.15627 1.98437,0.46875 0.40624,0.3021 0.60937,0.68752 0.60938,1.15625 l 0,0.23438 0.34375,-1.70313 4.60937,0 -2.29687,10.875 c -0.0938,0.36459 -0.14064,0.70834 -0.14063,1.03125 -1e-5,0.91667 0.43749,1.37501 1.3125,1.375 1.13541,10e-6 1.99999,-1.0052 2.59375,-3.01562 l 1.34375,0 m -8.0625,-7.21875 c -1e-5,-0.19791 -0.0938,-0.44791 -0.28125,-0.75 -0.17709,-0.31249 -0.5625,-0.46874 -1.15625,-0.46875 -0.59375,10e-6 -1.17188,0.31772 -1.73437,0.95312 -1.35417,1.53126 -2.20313,3.72918 -2.54688,6.59375 -0.0521,0.43751 -0.0781,0.90105 -0.0781,1.39063 0,0.94792 0.19791,1.60938 0.59375,1.98437 0.22916,0.22917 0.51562,0.34376 0.85937,0.34375 0.63542,10e-6 1.21354,-0.24999 1.73438,-0.75 0.52083,-0.51041 0.8802,-1.20312 1.07812,-2.07812 l 1.53125,-7.21875"
           style="font-size:32px;text-align:center;text-anchor:middle;fill:#1397b7;fill-opacity:1;stroke:none;font-family:'Lobster 1.4';-inkscape-font-specification:'Lobster 1.4'"
           id="path4861"
           inkscape:connector-curvature="0" />
        <path
           d="m 334.6875,482.36218 3.39062,-16 4.60938,0 -0.40625,1.98438 c 0.53124,-0.46874 1.11458,-0.91665 1.75,-1.34375 0.64582,-0.42707 1.33853,-0.64061 2.07812,-0.64063 0.74999,2e-5 1.31249,0.24481 1.6875,0.73438 0.37499,0.4896 0.56249,0.95835 0.5625,1.40625 -1e-5,0.77084 -0.20834,1.39584 -0.625,1.875 -0.40626,0.47918 -0.90105,0.71876 -1.48437,0.71875 -0.58334,10e-6 -0.96876,-0.1302 -1.15625,-0.39063 -0.18751,-0.27082 -0.30209,-0.54165 -0.34375,-0.8125 -0.0417,-0.28123 -0.099,-0.49998 -0.17188,-0.65625 -0.0625,-0.16665 -0.20313,-0.24998 -0.42187,-0.25 -0.43751,2e-5 -0.82292,0.10418 -1.15625,0.3125 -0.33334,0.19793 -0.71355,0.50002 -1.14063,0.90625 l -2.5625,12.15625 -4.60937,0"
           style="font-size:32px;text-align:center;text-anchor:middle;fill:#1397b7;fill-opacity:1;stroke:none;font-family:'Lobster 1.4';-inkscape-font-specification:'Lobster 1.4'"
           id="path4863"
           inkscape:connector-curvature="0" />
        <path
           d="m 352.35937,478.04968 c 0,0.93751 0.31771,1.40626 0.95313,1.40625 1.12499,10e-6 1.97916,-0.9427 2.5625,-2.82812 l 2.17187,-10.26563 4.64063,0 -3.90625,18.5625 c -0.24469,1.36805 -0.74415,3.45049 -2.16565,4.48972 4.07103,0.47588 9.60991,-1.27995 10.10872,-1.97961 0.89093,0.60015 -0.25982,0.93239 -0.84111,1.16084 -2.53342,0.99566 -3.82322,2.23892 -10.23961,1.93907 -2.92305,1.64053 -7.23777,3.01455 -14.0592,3.02072 -6.38177,0.006 -8.3668,-2.09688 -8.3969,-4.45886 -0.0252,-1.97774 3.95018,-3.89889 6.66797,-3.88672 5.3738,0.0241 9.06556,2.47244 12.04864,3.2038 0.9785,-0.732 1.72308,-2.32432 2.21645,-3.65654 0.31012,-0.8374 0.43933,-1.94137 0.59819,-2.64492 l 0.32812,-1.40625 c -1.08333,1.22917 -2.38542,1.84375 -3.90625,1.84375 -0.95833,0 -1.77083,-0.30208 -2.4375,-0.90625 -0.65625,-0.60416 -0.98437,-1.57812 -0.98437,-2.92187 0,-0.60416 0.0833,-1.30208 0.25,-2.09375 l 2.17187,-10.26563 4.60938,0 -2.29688,10.875 c -0.0625,0.27084 -0.0937,0.54167 -0.0937,0.8125 m -2.34729,11.5584 c -1.69405,-0.2786 -4.49186,-1.82526 -8.55871,-2.40139 -1.46588,-0.20766 -5.19891,0.27512 -5.33493,1.7733 -0.14004,1.54233 2.98773,2.32885 5.83077,2.22985 2.84305,-0.099 5.75157,-0.49236 8.06287,-1.60176 z"
           style="font-size:32px;text-align:center;text-anchor:middle;fill:#1397b7;fill-opacity:1;stroke:none;font-family:'Lobster 1.4';-inkscape-font-specification:'Lobster 1.4'"
           id="path4865"
           inkscape:connector-curvature="0"
           sodipodi:nodetypes="ccccccccscssscsccscsccccccsszc" />
        <path
           d="m 376.28125,480.28406 3.07812,0.0625 c 0.73958,0 1.42187,-0.0365 2.04688,-0.10938 0.62499,-0.0833 1.05207,-0.28124 1.28125,-0.59375 -0.1146,10e-6 -0.2396,-0.0677 -0.375,-0.20312 -0.13543,-0.14583 -0.20314,-0.40104 -0.20313,-0.76563 -1e-5,-0.63541 0.1927,-1.10416 0.57813,-1.40625 0.3854,-0.31249 0.85415,-0.46874 1.40625,-0.46875 0.55207,10e-6 0.9479,0.19792 1.1875,0.59375 0.24998,0.39584 0.37498,0.80209 0.375,1.21875 -2e-5,0.91667 -0.38543,1.77084 -1.15625,2.5625 -0.77085,0.79167 -1.75001,1.1875 -2.9375,1.1875 l -11.54688,0 11.1875,-22.26562 -2.875,-0.0781 c -1.95834,2e-5 -2.9375,0.23961 -2.9375,0.71875 0.10417,2e-5 0.21875,0.0729 0.34375,0.21875 0.125,0.14586 0.1875,0.40627 0.1875,0.78125 0,0.63544 -0.19792,1.10419 -0.59375,1.40625 -0.38542,0.29169 -0.85417,0.43752 -1.40625,0.4375 -0.55208,2e-5 -0.94271,-0.1979 -1.17187,-0.59375 -0.22917,-0.40623 -0.34375,-0.82289 -0.34375,-1.25 0,-0.89581 0.34896,-1.68227 1.04687,-2.35937 0.69792,-0.67706 1.66146,-1.0156 2.89063,-1.01563 l 10.96875,0 -11.03125,21.92188"
           style="font-size:32px;text-align:center;text-anchor:middle;fill:#1397b7;fill-opacity:1;stroke:none;font-family:'Lobster 1.4';-inkscape-font-specification:'Lobster 1.4'"
           id="path4867"
           inkscape:connector-curvature="0" />
        <path
           d="m 394.9375,462.11218 c -10e-6,0.70836 -0.25522,1.30731 -0.76563,1.79688 -0.5,0.47918 -1.10417,0.71877 -1.8125,0.71875 -0.69792,2e-5 -1.29167,-0.24478 -1.78125,-0.73438 -0.48958,-0.48956 -0.73437,-1.08331 -0.73437,-1.78125 0,-0.69789 0.23958,-1.29685 0.71875,-1.79687 0.48958,-0.5104 1.08854,-0.7656 1.79687,-0.76563 0.71875,3e-5 1.32812,0.25003 1.82813,0.75 0.49999,0.50002 0.74999,1.10419 0.75,1.8125 m -8.9375,20.25 3.20312,-16 4.60938,0 -3.3125,16 z"
           style="font-size:32px;text-align:center;text-anchor:middle;fill:#1397b7;fill-opacity:1;stroke:none;font-family:'Lobster 1.4';-inkscape-font-specification:'Lobster 1.4'"
           id="path4869"
           inkscape:connector-curvature="0"
           sodipodi:nodetypes="ccccsccccccccc" />
        <path
           d="m 414.13039,482.54968 c -2.72918,0 -4.09377,-1.20312 -4.09375,-3.60937 -2e-5,-0.875 0.23957,-2.27083 0.71875,-4.1875 0.47915,-1.91666 0.71873,-3.23957 0.71875,-3.96875 -2e-5,-1.09374 -0.38543,-1.64061 -1.15625,-1.64063 -0.77085,2e-5 -1.45835,0.60939 -2.0625,1.82813 -0.1771,0.34376 -0.32293,0.71876 -0.4375,1.125 l -2.17188,10.26562 -4.60937,0 2.34375,-11.04687 c 0.0625,-0.24999 0.0937,-0.51562 0.0937,-0.79688 -10e-6,-0.93748 -0.31772,-1.40623 -0.95313,-1.40625 -0.625,2e-5 -1.16146,0.29689 -1.60937,0.89063 -0.43751,0.58334 -0.77084,1.28126 -1,2.09375 l -2.17188,10.26562 -4.60937,0 3.39062,-16 4.60938,0 -0.34375,1.65625 c 1.06249,-1.20832 2.36457,-1.81248 3.90625,-1.8125 1.8854,2e-5 2.97915,0.91668 3.28125,2.75 1.17707,-1.81248 2.66144,-2.71873 4.45312,-2.71875 1.0104,2e-5 1.85415,0.28127 2.53125,0.84375 0.67707,0.56252 1.01561,1.38543 1.01563,2.46875 -2e-5,1.08335 -0.1771,2.33335 -0.53125,3.75 l -0.75,3.125 c -0.16669,0.67709 -0.25002,1.22917 -0.25,1.65625 -2e-5,0.91667 0.3906,1.37501 1.17187,1.375 0.71873,10e-6 1.27082,-0.22916 1.65625,-0.6875 0.3854,-0.45833 0.76561,-1.17187 1.14063,-2.14062 l 1.34375,0 c -0.79169,2.35417 -1.79169,4.00521 -3,4.95312 -0.83335,0.64584 -1.70835,0.96875 -2.625,0.96875"
           style="font-size:32px;text-align:center;text-anchor:middle;fill:#1397b7;fill-opacity:1;stroke:none;font-family:'Lobster 1.4';-inkscape-font-specification:'Lobster 1.4'"
           id="path4871"
           inkscape:connector-curvature="0"
           sodipodi:nodetypes="ccccccccccccccccccccccccccccccccc" />
        <path
           d="m 438.19289,482.54968 c -2.72918,0 -4.09377,-1.20312 -4.09375,-3.60937 -2e-5,-0.875 0.23957,-2.27083 0.71875,-4.1875 0.47915,-1.91666 0.71873,-3.23957 0.71875,-3.96875 -2e-5,-1.09374 -0.38543,-1.64061 -1.15625,-1.64063 -0.77085,2e-5 -1.45835,0.60939 -2.0625,1.82813 -0.1771,0.34376 -0.32293,0.71876 -0.4375,1.125 l -2.17188,10.26562 -4.60937,0 2.34375,-11.04687 c 0.0625,-0.24999 0.0937,-0.51562 0.0937,-0.79688 -10e-6,-0.93748 -0.31772,-1.40623 -0.95313,-1.40625 -0.625,2e-5 -1.16146,0.29689 -1.60937,0.89063 -0.43751,0.58334 -0.77084,1.28126 -1,2.09375 l -2.17188,10.26562 -4.60937,0 3.39062,-16 4.60938,0 -0.34375,1.65625 c 1.06249,-1.20832 2.36457,-1.81248 3.90625,-1.8125 1.8854,2e-5 2.97915,0.91668 3.28125,2.75 1.17707,-1.81248 2.66144,-2.71873 4.45312,-2.71875 1.0104,2e-5 1.85415,0.28127 2.53125,0.84375 0.67707,0.56252 1.01561,1.38543 1.01563,2.46875 -2e-5,1.08335 -0.1771,2.33335 -0.53125,3.75 l -0.75,3.125 c -0.16669,0.67709 -0.25002,1.22917 -0.25,1.65625 -2e-5,0.91667 0.3906,1.37501 1.17187,1.375 0.71873,10e-6 1.27082,-0.22916 1.65625,-0.6875 0.3854,-0.45833 0.76561,-1.17187 1.14063,-2.14062 l 1.34375,0 c -0.79169,2.35417 -1.79169,4.00521 -3,4.95312 -0.83335,0.64584 -1.70835,0.96875 -2.625,0.96875"
           style="font-size:32px;text-align:center;text-anchor:middle;fill:#1397b7;fill-opacity:1;stroke:none;font-family:'Lobster 1.4';-inkscape-font-specification:'Lobster 1.4'"
           id="path4873"
           inkscape:connector-curvature="0"
           sodipodi:nodetypes="ccccccccccccccccccccccccccccccccc" />
        <path
           d="m 455.84914,476.62781 c -2.39584,3.94792 -5.32813,5.92187 -8.79688,5.92187 -1.52083,0 -2.73437,-0.39062 -3.64062,-1.17187 -0.90625,-0.79167 -1.35937,-2.09375 -1.35938,-3.90625 1e-5,-2.4375 0.6198,-4.79687 1.85938,-7.07813 0.94791,-1.73957 2.23958,-2.97915 3.875,-3.71875 0.84374,-0.39581 1.71874,-0.59373 2.625,-0.59375 1.47916,2e-5 2.48436,0.28127 3.01562,0.84375 0.53124,0.5521 0.79687,1.29168 0.79688,2.21875 -10e-6,1.82293 -0.73439,3.37501 -2.20313,4.65625 -1.46875,1.27084 -3.1875,1.96876 -5.15625,2.09375 -0.0521,0.60418 -0.0781,1.03126 -0.0781,1.28125 0,1.09376 0.1927,1.81771 0.57812,2.17188 0.38542,0.34375 0.92708,0.51563 1.625,0.51562 1.22916,10e-6 2.26041,-0.27083 3.09375,-0.8125 0.84374,-0.55208 1.73437,-1.35937 2.67188,-2.42187 l 1.09375,0 m -4.09377,-7.70313 c -10e-6,-0.77082 -0.26563,-1.15623 -0.79688,-1.15625 -0.78125,0.0208 -1.53646,0.71356 -2.26562,2.07813 -0.72917,1.35418 -1.25521,2.85938 -1.57813,4.51562 1.22917,-0.0833 2.30729,-0.65624 3.23438,-1.71875 0.93749,-1.06249 1.40624,-2.30207 1.40625,-3.71875"
           style="font-size:32px;text-align:center;text-anchor:middle;fill:#1397b7;fill-opacity:1;stroke:none;font-family:'Lobster 1.4';-inkscape-font-specification:'Lobster 1.4'"
           id="path4875"
           inkscape:connector-curvature="0"
           sodipodi:nodetypes="cscscccccccsccccccccccc" />
        <path
           d="m 453.56789,482.36218 3.39062,-16 4.60938,0 -0.40625,1.98438 c 0.53124,-0.46874 1.11458,-0.91665 1.75,-1.34375 0.64582,-0.42707 1.33853,-0.64061 2.07812,-0.64063 0.74999,2e-5 1.31249,0.24481 1.6875,0.73438 0.37499,0.4896 0.56249,0.95835 0.5625,1.40625 -10e-6,0.77084 -0.20834,1.39584 -0.625,1.875 -0.40626,0.47918 -0.90105,0.71876 -1.48437,0.71875 -0.58334,10e-6 -0.96876,-0.1302 -1.15625,-0.39063 -0.18751,-0.27082 -0.30209,-0.54165 -0.34375,-0.8125 -0.0417,-0.28123 -0.099,-0.49998 -0.17188,-0.65625 -0.0625,-0.16665 -0.20313,-0.24998 -0.42187,-0.25 -0.43751,2e-5 -0.82292,0.10418 -1.15625,0.3125 -0.33334,0.19793 -0.71355,0.50002 -1.14063,0.90625 l -2.5625,12.15625"
           style="font-size:32px;text-align:center;text-anchor:middle;fill:#1397b7;fill-opacity:1;stroke:none;font-family:'Lobster 1.4';-inkscape-font-specification:'Lobster 1.4'"
           id="path4877"
           inkscape:connector-curvature="0"
           sodipodi:nodetypes="ccccccccccccccccc" />
        <path
           d="m 486.63039,482.54968 c -2.72918,0 -4.09377,-1.20312 -4.09375,-3.60937 -2e-5,-0.875 0.23957,-2.27083 0.71875,-4.1875 0.47915,-1.91666 0.71873,-3.23957 0.71875,-3.96875 -2e-5,-1.09374 -0.38543,-1.64061 -1.15625,-1.64063 -0.77085,2e-5 -1.45835,0.60939 -2.0625,1.82813 -0.1771,0.34376 -0.32293,0.71876 -0.4375,1.125 l -2.17188,10.26562 -4.60937,0 2.34375,-11.04687 c 0.0625,-0.24999 0.0937,-0.51562 0.0937,-0.79688 -10e-6,-0.93748 -0.31772,-1.40623 -0.95313,-1.40625 -0.625,2e-5 -1.16146,0.29689 -1.60937,0.89063 -0.43751,0.58334 -0.77084,1.28126 -1,2.09375 l -2.17188,10.26562 -4.60937,0 3.39062,-16 4.60938,0 -0.34375,1.65625 c 1.06249,-1.20832 2.36457,-1.81248 3.90625,-1.8125 1.8854,2e-5 2.97915,0.91668 3.28125,2.75 1.17707,-1.81248 2.66144,-2.71873 4.45312,-2.71875 1.0104,2e-5 1.85415,0.28127 2.53125,0.84375 0.67707,0.56252 1.01561,1.38543 1.01563,2.46875 -2e-5,1.08335 -0.1771,2.33335 -0.53125,3.75 l -0.75,3.125 c -0.16669,0.67709 -0.25002,1.22917 -0.25,1.65625 -2e-5,0.91667 0.3906,1.37501 1.17187,1.375 0.71873,10e-6 1.27082,-0.22916 1.65625,-0.6875 0.3854,-0.45833 0.76561,-1.17187 1.14063,-2.14062 l 1.34375,0 c -0.79169,2.35417 -1.79169,4.00521 -3,4.95312 -0.83335,0.64584 -1.70835,0.96875 -2.625,0.96875"
           style="font-size:32px;text-align:center;text-anchor:middle;fill:#1397b7;fill-opacity:1;stroke:none;font-family:'Lobster 1.4';-inkscape-font-specification:'Lobster 1.4'"
           id="path4879"
           inkscape:connector-curvature="0"
           sodipodi:nodetypes="ccccccccccccccccccccccccccccccccc" />
        <path
           d="m 509.08351,476.62781 c -1.35418,3.94792 -3.4948,5.92187 -6.42187,5.92187 -1.88543,0 -2.9323,-0.97916 -3.14063,-2.9375 -1.39584,1.95834 -3.02604,2.9375 -4.89062,2.9375 -1.85417,0 -3.11458,-0.91145 -3.78125,-2.73437 -0.23958,-0.65625 -0.35937,-1.40104 -0.35938,-2.23438 1e-5,-0.84374 0.0729,-1.68228 0.21875,-2.51562 0.14584,-0.84374 0.3698,-1.68229 0.67188,-2.51563 0.66667,-1.83332 1.61979,-3.34894 2.85937,-4.54687 1.23958,-1.1979 2.73437,-1.79686 4.48438,-1.79688 0.91666,2e-5 1.57812,0.15627 1.98437,0.46875 0.40624,0.3021 0.60937,0.68752 0.60938,1.15625 l 0,0.23438 0.34375,-1.70313 4.60937,0 -2.29687,10.875 c -0.0938,0.36459 -0.14064,0.70834 -0.14063,1.03125 -10e-6,0.91667 0.43749,1.37501 1.3125,1.375 1.13541,10e-6 1.99999,-1.0052 2.59375,-3.01562 l 1.34375,0 m -8.0625,-7.21875 c -10e-6,-0.19791 -0.0938,-0.44791 -0.28125,-0.75 -0.17709,-0.31249 -0.5625,-0.46874 -1.15625,-0.46875 -0.59375,10e-6 -1.17188,0.31772 -1.73437,0.95312 -1.35417,1.53126 -2.20313,3.72918 -2.54688,6.59375 -0.0521,0.43751 -0.0781,0.90105 -0.0781,1.39063 0,0.94792 0.19791,1.60938 0.59375,1.98437 0.22916,0.22917 0.51562,0.34376 0.85937,0.34375 0.63542,10e-6 1.21354,-0.24999 1.73438,-0.75 0.52083,-0.51041 0.8802,-1.20312 1.07812,-2.07812 l 1.53125,-7.21875"
           style="font-size:32px;text-align:center;text-anchor:middle;fill:#1397b7;fill-opacity:1;stroke:none;font-family:'Lobster 1.4';-inkscape-font-specification:'Lobster 1.4'"
           id="path4881"
           inkscape:connector-curvature="0"
           sodipodi:nodetypes="cscsccccsccccccccccccccccsccccc" />
        <path
           d="m 514.16164,468.01843 c 1.04166,-1.18748 2.28645,-1.78123 3.73437,-1.78125 1.02083,2e-5 1.86978,0.28127 2.54688,0.84375 0.67707,0.56252 1.01561,1.39585 1.01562,2.5 -1e-5,1.10418 -0.17709,2.35418 -0.53125,3.75 l -0.76562,3.09375 c -0.16668,0.67709 -0.25001,1.22917 -0.25,1.65625 -1e-5,0.42709 0.0885,0.76563 0.26562,1.01563 0.18749,0.23958 0.53124,0.35938 1.03125,0.35937 0.49999,10e-6 0.84895,-0.0677 1.04688,-0.20312 -0.15626,1.15625 -0.57293,1.99479 -1.25,2.51562 -0.6771,0.52084 -1.38022,0.78125 -2.10938,0.78125 -1.28125,0 -2.1823,-0.375 -2.70312,-1.125 -0.45834,-0.625 -0.68751,-1.41145 -0.6875,-2.35937 -1e-5,-0.95833 0.23958,-2.39583 0.71875,-4.3125 0.47916,-1.91666 0.71874,-3.23957 0.71875,-3.96875 -1e-5,-1.09374 -0.38543,-1.64061 -1.15625,-1.64063 -0.77084,2e-5 -1.45834,0.60939 -2.0625,1.82813 -0.17709,0.34376 -0.32292,0.71876 -0.4375,1.125 l -2.17188,10.26562 -4.60937,0 3.39062,-16 4.60938,0 -0.34375,1.65625"
           style="font-size:32px;text-align:center;text-anchor:middle;fill:#1397b7;fill-opacity:1;stroke:none;font-family:'Lobster 1.4';-inkscape-font-specification:'Lobster 1.4'"
           id="path4883"
           inkscape:connector-curvature="0"
           sodipodi:nodetypes="ccccccccccssccsccccccccc" />
      </g>
    </g>
  </g>
</svg>
