<?xml version="1.0" encoding="UTF-8" standalone="no"?>
<!-- Created with Inkscape (http://www.inkscape.org/) -->

<svg
   xmlns:dc="http://purl.org/dc/elements/1.1/"
   xmlns:cc="http://creativecommons.org/ns#"
   xmlns:rdf="http://www.w3.org/1999/02/22-rdf-syntax-ns#"
   xmlns:svg="http://www.w3.org/2000/svg"
   xmlns="http://www.w3.org/2000/svg"
   xmlns:sodipodi="http://sodipodi.sourceforge.net/DTD/sodipodi-0.dtd"
   xmlns:inkscape="http://www.inkscape.org/namespaces/inkscape"
   width="64"
   height="64"
   id="svg3375"
   version="1.1"
   inkscape:version="0.48.2 r9819"
   sodipodi:docname="brain-icon.svg">
  <defs
     id="defs3377" />
  <sodipodi:namedview
     id="base"
     pagecolor="#ffffff"
     bordercolor="#666666"
     borderopacity="1.0"
     inkscape:pageopacity="0.0"
     inkscape:pageshadow="2"
     inkscape:zoom="5.6"
     inkscape:cx="19.784284"
     inkscape:cy="21.594037"
     inkscape:document-units="px"
     inkscape:current-layer="layer1"
     showgrid="false"
     fit-margin-top="0"
     fit-margin-left="0"
     fit-margin-right="0"
     fit-margin-bottom="0"
     inkscape:window-width="1442"
     inkscape:window-height="860"
     inkscape:window-x="1"
     inkscape:window-y="0"
     inkscape:window-maximized="0">
    <inkscape:grid
       type="xygrid"
       id="grid4202"
       empspacing="5"
       visible="true"
       enabled="true"
       snapvisiblegridlinesonly="true" />
  </sodipodi:namedview>
  <metadata
     id="metadata3380">
    <rdf:RDF>
      <cc:Work
         rdf:about="">
        <dc:format>image/svg+xml</dc:format>
        <dc:type
           rdf:resource="http://purl.org/dc/dcmitype/StillImage" />
        <dc:title></dc:title>
      </cc:Work>
    </rdf:RDF>
  </metadata>
  <g
     inkscape:label="Layer 1"
     inkscape:groupmode="layer"
     id="layer1"
     transform="translate(-376.78098,-493.93576)">
    <rect
       style="opacity:0.98999999;color:#000000;fill:#3c5774;fill-opacity:1;fill-rule:nonzero;stroke:none;stroke-width:3;marker:none;visibility:visible;display:inline;overflow:visible;enable-background:accumulate"
       id="rect3390"
       width="64"
       height="64"
       x="376.78098"
       y="493.93576"
       rx="0.51342601" />
    <g
       id="g5336"
       transform="matrix(1.1865521,0,0,1.1865521,-178.51107,-183.31957)">
      <path
         style="fill:#ffffff;fill-opacity:1;stroke:none"
         d="m 503.06255,611.28997 c -1.98836,-2.58872 -4.03601,-2.49466 -5.22695,-0.48468 -1.19094,2.00998 4.58114,11.52613 8.65587,10.8447 6.81822,-1.81082 3.41881,-2.07412 -3.42892,-10.36002 z m 13.8121,-3.15314 c 0.92703,-1.89184 -0.7369,-3.4279 -3.56828,-3.08049 -2.83138,0.34741 -4.36153,1.16171 -6.72815,2.01778 -2.36662,0.85607 -4.67466,1.79734 -2.34104,3.72288 2.33362,1.92554 4.64508,1.20101 6.99841,1.03262 2.35332,-0.16838 4.40239,-1.2892 5.63906,-3.69279 z m -5.9929,-15.40408 c -2.21747,0.839 -2.96543,-2.96826 -6.45453,-0.53954 -3.4891,2.42871 -2.20408,3.45845 -5.35704,5.37626 -3.15296,1.9178 -7.65972,-0.16395 -10.1758,0.30222 -2.51608,0.46617 -5.20639,2.14312 -7.06437,3.42192 -1.85798,1.2788 -2.25177,3.23028 0.11454,5.49879 2.36631,2.26851 5.05795,2.47646 9.23362,2.49628 4.17566,0.0198 10.35704,-1.17536 9.04031,-4.7171 -0.60525,-2.71771 -7.52682,0.18425 -8.47665,0.25325 -1.4136,-0.0406 -7.59048,0.32435 -4.64159,-2.09481 2.94888,-2.41915 1.67309,0.11598 4.85006,0.25457 3.17696,0.13859 7.26594,-2.42995 9.37336,-3.00488 2.10743,-0.57492 -0.0211,1.75496 0.0291,3.77101 0.159,2.5195 2.92229,2.3109 4.59617,1.50954 2.0871,-1.58819 1.20106,-2.00655 0.7875,-3.11409 -0.45977,-1.46757 -0.64244,-5.48148 1.1087,-5.81451 1.19082,3.14602 1.60686,4.67757 2.65614,5.92099 1.04927,1.24342 7.70997,2.21593 8.37941,0.26445 0.66944,-1.95148 -1.9367,-4.41029 -4.42151,-4.18284 -2.48481,0.22745 -3.99434,-1.88276 -1.90356,-1.43967 2.09078,0.44309 4.28552,-0.7429 5.45439,-1.44292 1.16887,-0.70002 2.60472,-3.75033 1.14385,-5.70201 -1.46087,-1.95168 -6.05464,2.14409 -8.27211,2.98309 z m -1.78741,-6.53022 c -0.81737,-0.94558 -2.11986,-2.75892 -3.97904,-1.99827 1.91985,-3.79945 2.67523,-1.15719 4.06833,-0.83956 1.69478,0.26022 1.29486,0.43486 2.75139,2.01402 l 2.02153,2.36659 c 0.65658,1.39874 4.12887,1.20795 3.81253,-0.98441 -0.31634,-2.19236 -2.70938,-4.55896 -3.40525,-3.7817 -3.87612,-0.8527 0.45166,-2.62205 -5.15212,-4.90056 -2.693,-1.04837 -4.72934,1.93851 -5.73636,3.22525 -1.00702,1.28674 -2.07217,1.8912 -2.32576,3.28108 -0.25359,1.38988 2.47123,1.7611 1.28339,2.97113 -1.18784,1.21004 -5.84147,3.18553 -5.42053,6.82823 0.42094,3.6427 4.61302,-1.6741 5.39266,-2.92025 0.77963,-1.24616 1.80711,-2.31357 3.3804,-2.51256 1.57329,-0.19898 2.66169,3.60925 5.71569,0.84736 3.054,-2.76189 -1.58949,-2.65077 -2.40686,-3.59635 z m -30.73433,9.57216 c 0.66471,-1.96844 3.57298,-1.81602 2.74766,0.42205 -1.62979,2.46998 -2.07046,5.20655 2.9783,2.88657 3.82958,-2.05582 -2.55356,-3.83484 1.72436,-3.46418 5.0639,1.85837 4.35869,-1.16076 6.64274,0.55102 3.30733,2.59258 2.84074,-0.38944 2.69718,-2.72415 -0.14356,-2.33471 2.51392,-4.22748 3.84109,-5.99893 1.32717,-1.77145 -0.62858,-3.60926 2.24017,-5.77373 2.86876,-2.16447 3.91984,-4.28667 1.24625,-5.13374 -2.67359,-0.84707 -3.44027,0.80415 -4.06809,3.00651 -1.30153,4.97483 -1.79059,5.75322 -3.99692,9.00632 -2.20633,3.2531 -2.57162,-0.3941 -6.47866,2.24606 -2.75464,4.10096 -3.99525,-0.93459 -5.49048,2.17309 -0.79756,1.83986 -3.05883,-4.16441 -1.6535,-2.66385 1.40533,1.50056 4.08192,-0.93206 5.83504,-2.05031 1.75312,-1.11825 4.2867,-0.002 5.7194,-0.86692 1.4327,-0.8645 2.08001,-2.88448 0.47725,-3.90949 -1.60276,-1.02501 -4.48921,-1.72158 -4.27033,-2.83308 0.21888,-1.1115 1.3279,-1.62783 2.12718,-0.0614 0.79928,1.56643 4.28084,3.81622 4.71088,2.85585 1.70803,-2.67291 4.10088,-7.22627 1.37899,-7.78562 -2.72189,-0.55936 -1.82203,4.08613 -2.91683,3.45496 -1.42032,-0.81883 -4.28252,-3.46185 -5.67344,-2.99196 -1.39092,0.46989 -4.51766,4.38526 -4.14689,6.17572 0.37077,1.79046 3.07082,1.17701 2.25686,1.64403 -0.81396,0.46702 -1.71954,3.30899 -3.81037,3.24792 -2.09083,-0.0611 -4.81028,1.19053 -4.70634,2.78808 0.10394,1.59755 -2.89748,7.47725 -3.00331,4.24922 -0.10582,-3.22803 -0.29673,-1.92623 -1.70313,-3.4913 -1.4064,-1.56507 3.28763,-0.41722 4.38599,-2.21157 1.09836,-1.79435 -0.0493,-3.64722 -1.378,-4.23744 -1.32873,-0.59022 1.84555,-3.08588 2.01229,-1.91033 0.16674,1.17555 0.57198,4.41374 2.57905,4.04297 2.00707,-0.37077 3.08207,-0.83722 3.64259,-1.9573 0.56052,-1.12008 -0.926,-2.0062 -1.67698,-1.43017 -0.75099,0.57603 -1.38266,0.89348 -1.57974,0.0664 -0.19709,-0.82705 3.06598,-4.78577 1.67202,-5.37174 -1.39396,-0.58597 -2.83363,0.34095 -4.68976,1.43021 -1.85613,1.08926 -3.94084,3.35712 -5.45458,5.05015 -1.51374,1.69303 3.12254,2.60836 0.11269,2.3436 -3.921,1.05612 -0.81054,9.16198 -0.25585,10.32862 1.5158,2.85781 5.3281,5.36207 6.96577,4.62187 1.17255,-0.40722 -1.54049,-4.09933 -1.04055,-5.72401 z"
         id="path5338"
         inkscape:connector-curvature="0"
         sodipodi:nodetypes="czccczzzzczzzzzzzcczzzcccczzzzzzzzcccczcczzzzzzzzccccczzzzczcczzzzzzczszzzzzzzzzzzzzzzzzcccc" />
    </g>
    <path
       style="opacity:0.98999999;color:#000000;fill:#ffffff;fill-opacity:1;fill-rule:nonzero;stroke:none;stroke-width:10;marker:none;visibility:visible;display:inline;overflow:visible;enable-background:accumulate"
       id="path4778"
       d="m 58.414183,89.541738 c -0.888333,-1.334293 -2.305149,-2.217281 -3.748935,-2.854682 -0.504687,-0.222809 -1.032406,-0.389296 -1.548609,-0.583945 -2.248356,-0.666874 -4.608206,-1.124706 -6.962973,-0.859074 -1.468932,0.165704 -1.6869,0.335405 -3.044624,0.832892 0.254509,-0.129357 0.917782,-0.628304 0.763525,-0.38807 -0.260385,0.405514 -0.767126,0.587772 -1.109516,0.926905 -0.33926,0.336033 -0.646637,0.705492 -0.928043,1.091272 -0.537536,0.736907 -0.938885,1.532634 -1.254723,2.385675 -0.150478,0.406426 -0.251452,0.829502 -0.377178,1.244252 -0.496853,2.019329 -0.557244,4.101633 -0.555023,6.169967 -0.06584,0.708102 0.21823,1.749485 -0.126706,2.407429 -0.04722,0.09007 -0.122,0.162731 -0.183,0.244101 -0.847957,0.48337 -1.674813,1.0058 -2.543871,1.45012 -0.103939,0.0531 -0.865258,0.0957 -0.928559,0.0993 -0.651702,0.0366 -1.033363,-0.0189 -1.661956,-0.1825 -1.195535,-0.41024 -1.7493,-1.38196 -2.263272,-2.460436 -0.471006,-1.056663 -0.639481,-2.197906 -0.736175,-3.340147 -0.03463,-0.562061 -0.04907,-1.125018 -0.05973,-1.687943 0,0 2.329429,-1.188221 2.329429,-1.188221 l 0,0 c -0.0055,0.561808 -0.0081,1.124019 0.02458,1.6852 0.07471,1.115121 0.216992,2.232133 0.674417,3.264466 0.495696,1.020704 0.994769,1.912358 2.151873,2.260921 0.596992,0.13004 1.001627,0.171 1.614784,0.10848 1.172017,-0.11949 2.211692,-0.8751 -1.028565,0.99277 0.07522,-0.0517 0.16422,-0.0876 0.225648,-0.15515 0.44122,-0.48495 0.183584,-1.756046 0.256342,-2.351604 0.0327,-2.10354 0.122332,-4.217672 0.608417,-6.273994 0.123372,-0.424194 0.221994,-0.856385 0.370117,-1.272583 0.314815,-0.884568 0.704871,-1.684512 1.243671,-2.45651 1.407271,-2.016351 3.153005,-2.878914 5.380809,-4.044813 1.374765,-0.46245 1.587712,-0.621034 3.064325,-0.756769 2.378053,-0.218597 4.751934,0.266545 7.021171,0.931157 0.529165,0.196777 1.069282,0.366297 1.587496,0.590331 1.5097,0.652673 2.978253,1.549606 4.03132,2.831404 0,0 -2.286465,1.339799 -2.286465,1.339799 z"
       inkscape:connector-curvature="0"
       transform="translate(376.78098,493.93576)" />
  </g>
</svg>
