<?xml version="1.0" encoding="UTF-8" standalone="no"?>
<!-- Created with Inkscape (http://www.inkscape.org/) -->

<svg
   xmlns:dc="http://purl.org/dc/elements/1.1/"
   xmlns:cc="http://creativecommons.org/ns#"
   xmlns:rdf="http://www.w3.org/1999/02/22-rdf-syntax-ns#"
   xmlns:svg="http://www.w3.org/2000/svg"
   xmlns="http://www.w3.org/2000/svg"
   xmlns:sodipodi="http://sodipodi.sourceforge.net/DTD/sodipodi-0.dtd"
   xmlns:inkscape="http://www.inkscape.org/namespaces/inkscape"
   width="744.09448819"
   height="1052.3622047"
   id="svg2"
   version="1.1"
   inkscape:version="0.48.2 r9819"
   sodipodi:docname="demo-logo.svg">
  <defs
     id="defs4" />
  <sodipodi:namedview
     id="base"
     pagecolor="#ffffff"
     bordercolor="#666666"
     borderopacity="1.0"
     inkscape:pageopacity="0.0"
     inkscape:pageshadow="2"
     inkscape:zoom="0.5"
     inkscape:cx="140.97249"
     inkscape:cy="666.68187"
     inkscape:document-units="px"
     inkscape:current-layer="layer1"
     showgrid="false"
     inkscape:window-width="1440"
     inkscape:window-height="856"
     inkscape:window-x="0"
     inkscape:window-y="0"
     inkscape:window-maximized="0" />
  <metadata
     id="metadata7">
    <rdf:RDF>
      <cc:Work
         rdf:about="">
        <dc:format>image/svg+xml</dc:format>
        <dc:type
           rdf:resource="http://purl.org/dc/dcmitype/StillImage" />
        <dc:title />
      </cc:Work>
    </rdf:RDF>
  </metadata>
  <g
     inkscape:label="Layer 1"
     inkscape:groupmode="layer"
     id="layer1">
    <g
       style="font-size:35.57770538px;font-style:normal;font-variant:normal;font-weight:normal;font-stretch:normal;line-height:125%;letter-spacing:0px;word-spacing:0px;fill:#000000;fill-opacity:1;stroke:none;font-family:SimSun-ExtB;-inkscape-font-specification:SimSun-ExtB"
       id="text2987" />
    <path
       style="color:#000000;fill:#6e6e6e;fill-opacity:1;fill-rule:nonzero;stroke:none;stroke-width:1;marker:none;visibility:visible;display:inline;overflow:visible;enable-background:accumulate"
       d="m 180.5625,268.5625 c -50.00903,0 -90.281253,40.27222 -90.281253,90.28125 l 0,66.5 c 0,50.00902 40.272223,90.28125 90.281253,90.28125 l 417.03125,0 c 50.00902,0 90.25,-40.27223 90.25,-90.28125 l 0,-66.5 c 0,-50.00903 -40.24098,-90.28125 -90.25,-90.28125 z m 52.90625,43.53125 c 25.85048,1.6e-4 43.14916,10.43603 51.90625,31.3125 3.71282,8.89721 5.59361,19.35677 5.59375,31.40625 -1.4e-4,11.97962 -1.64501,24.09162 -4.9375,36.28125 -6.79553,25.43029 -17.49102,44.16917 -32.0625,56.21875 -7.2859,6.02479 -15.046,9.03125 -23.3125,9.03125 -8.19659,0 -16.73553,-3.83267 -25.5625,-11.46875 l -1.78125,8.625 -30.875,0 L 201.625,336.5625 233.46875,332.375 207.625,453 c 3.92306,2.8723 8.03903,4.31251 12.3125,4.3125 6.44506,10e-6 12.19835,-2.88041 17.3125,-8.625 9.87777,-11.13884 16.89785,-28.74451 21.03125,-52.84375 1.96145,-11.06872 2.93739,-22.14983 2.9375,-33.21875 -1.1e-4,-27.11144 -10.45967,-40.65609 -31.40625,-40.65625 -16.39311,1.6e-4 -29.89037,4.73012 -40.46875,14.1875 -10.57845,9.45766 -15.87502,22.18365 -15.875,38.15625 -2e-5,5.81472 0.8262,10.18275 2.4375,13.125 0.35026,0.56053 0.49998,1.0485 0.5,1.46875 -11.34905,8e-5 -18.49516,-3.54928 -21.4375,-10.625 -1.05084,-2.59197 -1.5625,-6.00775 -1.5625,-10.28125 0,-4.27329 0.95224,-8.7749 2.84375,-13.46875 1.96155,-4.76367 4.6847,-9.23402 8.1875,-13.4375 7.14567,-8.61672 16.8889,-15.58186 29.21875,-20.90625 12.32976,-5.39413 25.59111,-8.09359 39.8125,-8.09375 z M 348.03125,364 c 9.94786,1.1e-4 16.70833,1.90459 20.28125,5.6875 3.57276,3.71306 5.34367,8.67138 5.34375,14.90625 -8e-5,12.25984 -4.93471,22.69571 -14.8125,31.3125 -9.87792,8.54686 -21.447,13.25313 -34.6875,14.09375 -0.35031,4.06328 -0.53128,6.9437 -0.53125,8.625 -3e-5,7.35589 1.31416,12.21188 3.90625,14.59375 2.59203,2.31186 6.24372,3.46876 10.9375,3.46875 8.26653,10e-6 15.17673,-1.82583 20.78125,-5.46875 5.67445,-3.71293 11.66365,-9.13553 17.96875,-16.28125 l 0.21875,0 14.625,-69.03125 31,0 -2.3125,11.125 c 7.14564,-8.12637 15.88168,-12.18739 26.25,-12.1875 12.68001,1.1e-4 20.03079,6.17028 22.0625,18.5 7.9162,-12.18961 17.91904,-18.28114 29.96875,-18.28125 6.79528,1.1e-4 12.47749,1.87334 17.03125,5.65625 4.55348,3.78311 6.81235,9.33929 6.8125,16.625 -1.5e-4,7.28588 -1.18075,15.69123 -3.5625,25.21875 l -5.0625,21 c -1.12103,4.55366 -1.65639,8.28399 -1.65625,11.15625 -1.4e-4,6.16493 2.62068,9.21877 7.875,9.21875 4.8337,2e-5 8.53278,-1.51128 11.125,-4.59375 1.55514,-1.84946 3.09496,-4.35224 4.625,-7.4375 0.003,0.0506 2.5,14.09375 2.5,14.09375 l -2.5,-14.125 c 0,-5.18409 0.44058,-10.45697 1.28125,-15.78125 0.84067,-5.39424 2.20224,-10.91917 4.09375,-16.59375 4.20334,-12.96024 10.21624,-23.37242 18.0625,-31.21875 9.66766,-9.52748 21.28414,-14.28114 34.875,-14.28125 16.95342,1.1e-4 26.08266,9.66471 27.34375,29 4.69365,-1.05075 8.98303,-4.70245 12.90625,-10.9375 l 2.4375,-3.875 6.8125,0 c -1.1e-4,9e-5 -1.2044,2.51858 -3.65625,7.5625 -5.18423,10.29828 -11.3544,17.36575 -18.5,21.21875 -1.4012,20.38628 -6.8238,36.70902 -16.28125,48.96875 -9.45759,12.25977 -21.10531,18.40625 -34.90625,18.40625 -16.53318,0 -27.17371,-6.09154 -31.9375,-18.28125 -0.008,-0.0214 -0.0229,-0.041 -0.0312,-0.0625 -3.21649,5.13026 -6.75058,9.23504 -10.59375,12.25 -5.60461,4.34346 -11.49148,6.49999 -17.65625,6.5 -18.35473,-10e-6 -27.53136,-8.06711 -27.53125,-24.25 -1.1e-4,-5.88466 1.62107,-15.2972 4.84375,-28.1875 3.22245,-12.8902 4.84363,-21.78352 4.84375,-26.6875 -1.2e-4,-7.35577 -2.59724,-11.03116 -7.78125,-11.03125 -5.18423,9e-5 -9.81186,4.11606 -13.875,12.3125 -1.19104,2.31191 -2.16698,4.8304 -2.9375,7.5625 l -14.625,69.03125 -31,0 15.78125,-74.28125 c 0.42027,-1.68126 0.62494,-3.48341 0.625,-5.375 -6e-5,-6.30493 -2.13291,-9.46866 -6.40625,-9.46875 -4.2034,9e-5 -7.8314,2.00691 -10.84375,6 -2.94238,3.9232 -5.17757,8.62948 -6.71875,14.09375 L 400.25,473.5 l -31,0 5.09375,-24.09375 c -14.01452,16.88385 -30.30332,25.34374 -48.90625,25.34375 -10.22816,-10e-6 -18.40516,-2.62081 -24.5,-7.875 -6.09486,-5.32423 -9.125,-14.09152 -9.125,-26.28125 0,-16.393 4.16337,-32.25147 12.5,-47.59375 6.37506,-11.69922 15.06372,-20.02594 26.0625,-25 5.67448,-2.66201 11.56135,-3.99989 17.65625,-4 z m 26.3125,85.40625 3.09375,-14.46875 z m -22.65625,-74.0625 c -5.25424,0.14021 -10.3149,4.79154 -15.21875,13.96875 -4.90395,9.10733 -8.45331,19.2362 -10.625,30.375 8.26654,-0.56039 15.51499,-4.41675 21.75,-11.5625 6.30497,-7.14562 9.46869,-15.47233 9.46875,-25 -6e-5,-5.18403 -1.80222,-7.78115 -5.375,-7.78125 z m 243.6875,1.6875 c -3.29268,9e-5 -6.60612,2.15664 -9.96875,6.5 -6.58528,8.54689 -11.57486,20.42296 -14.9375,35.625 -1.4712,6.93557 -2.18753,12.67273 -2.1875,17.15625 -3e-5,7.77622 0.77124,12.83687 2.3125,15.21875 1.61125,2.31186 4.12973,3.46877 7.5625,3.46875 6.09481,2e-5 11.41507,-4.26567 15.96875,-12.8125 4.62362,-8.61682 7.78735,-19.25735 9.46875,-31.9375 -3.4328,-1.33099 -5.15631,-4.6757 -5.15625,-10 -6e-5,-5.39422 2.03045,-9.04591 6.09375,-10.9375 -0.35035,-4.55353 -1.12162,-7.74096 -2.3125,-9.5625 -1.19101,-1.82135 -3.48114,-2.71866 -6.84375,-2.71875 z"
       id="rect4165"
       inkscape:connector-curvature="0"
       sodipodi:nodetypes="sssssssssccccssccccccsccccsscccscccccccccccsccccccccccccccsccccccccccccccsscccsccccccccccccccccscscccccccccccccccccscccccc" />
    <g
       style="font-size:215.21134949px;font-style:normal;font-variant:normal;font-weight:normal;font-stretch:normal;line-height:125%;letter-spacing:0px;word-spacing:0px;fill:#ffffff;fill-opacity:1;stroke:none;font-family:SimSun-ExtB;-inkscape-font-specification:SimSun-ExtB"
       id="text4675" />
  </g>
</svg>
