<?xml version="1.0" encoding="UTF-8" standalone="no"?>
<!-- Created with Inkscape (http://www.inkscape.org/) -->

<svg
   xmlns:dc="http://purl.org/dc/elements/1.1/"
   xmlns:cc="http://creativecommons.org/ns#"
   xmlns:rdf="http://www.w3.org/1999/02/22-rdf-syntax-ns#"
   xmlns:svg="http://www.w3.org/2000/svg"
   xmlns="http://www.w3.org/2000/svg"
   xmlns:sodipodi="http://sodipodi.sourceforge.net/DTD/sodipodi-0.dtd"
   xmlns:inkscape="http://www.inkscape.org/namespaces/inkscape"
   id="svg2"
   version="1.1"
   inkscape:version="0.48.2 r9819"
   width="720"
   height="720"
   xml:space="preserve"
   sodipodi:docname="GitHub_Logo.svg"><metadata
     id="metadata8"><rdf:RDF><cc:Work
         rdf:about=""><dc:format>image/svg+xml</dc:format><dc:type
           rdf:resource="http://purl.org/dc/dcmitype/StillImage" /><dc:title></dc:title></cc:Work></rdf:RDF></metadata><defs
     id="defs6"><clipPath
       clipPathUnits="userSpaceOnUse"
       id="clipPath16"><path
         d="M 0,576 576,576 576,0 0,0 0,576 z"
         id="path18" /></clipPath></defs><sodipodi:namedview
     pagecolor="#ffffff"
     bordercolor="#666666"
     borderopacity="1"
     objecttolerance="10"
     gridtolerance="10"
     guidetolerance="10"
     inkscape:pageopacity="0"
     inkscape:pageshadow="2"
     inkscape:window-width="1440"
     inkscape:window-height="856"
     id="namedview4"
     showgrid="false"
     inkscape:zoom="0.92709556"
     inkscape:cx="339.50589"
     inkscape:cy="360"
     inkscape:window-x="0"
     inkscape:window-y="0"
     inkscape:window-maximized="0"
     inkscape:current-layer="g10" /><g
     id="g10"
     inkscape:groupmode="layer"
     inkscape:label="GitHub_Logo"
     transform="matrix(1.25,0,0,-1.25,0,720)"><path
       style="color:#000000;fill:#6e6e6e;fill-opacity:1;fill-rule:nonzero;stroke:none;stroke-width:1;marker:none;visibility:visible;display:inline;overflow:visible;enable-background:accumulate"
       d="M 97.5 237.15625 C 49.59858 238.36174 11.40625 277.329 11.40625 325.53125 L 11.40625 394.6875 C 11.40625 443.65487 50.813884 483.0625 99.78125 483.0625 L 619.8125 483.0625 C 668.77986 483.0625 708.1875 443.65488 708.1875 394.6875 L 708.1875 325.53125 C 708.1875 276.56389 668.77986 237.15625 619.8125 237.15625 L 99.78125 237.15625 C 99.016135 237.15625 98.26034 237.13712 97.5 237.15625 z M 128.0625 278.84375 C 157.295 278.84375 168.885 285.3025 170.78125 286.65625 C 171.47625 287.15375 171.65625 287.89 171.65625 288.5 L 166.03125 312.3125 C 166.03125 313.61375 164.68625 315.105 163.21875 314.65625 C 158.54875 313.21 151.19375 310.1875 134.15625 310.1875 C 114.47375 310.1875 93.53125 316.03125 93.53125 360.3125 C 93.53125 404.58625 113.65 409.84375 128.0625 409.84375 C 140.27875 409.84375 144.6875 408.34375 144.6875 408.34375 L 144.6875 377.6875 L 125.03125 377.6875 C 123.73 377.6875 122.65625 376.645 122.65625 375.34375 L 122.65625 350.65625 C 122.65625 349.35375 123.73 348.3125 125.03125 348.3125 L 175.46875 348.3125 C 176.77 348.3125 177.8125 349.35375 177.8125 350.65625 L 177.8125 427.59375 C 177.8125 428.035 177.7525 428.99375 177.0625 429.375 C 177.0625 429.375 160.31375 441.15625 132.71875 441.15625 C 99.39125 441.15625 59.84375 430.9075 59.84375 362.03125 C 59.84375 293.15625 94.38625 278.84375 128.0625 278.84375 z M 327.34375 284.71875 L 355.71875 284.71875 C 357.0175 284.71875 358.0625 285.78125 358.0625 287.09375 L 358.0625 341.96875 L 402.34375 341.96875 L 402.34375 287.09375 C 402.34375 285.78125 403.39 284.71875 404.6875 284.71875 L 433.09375 284.71875 C 434.395 284.71875 435.4375 285.78125 435.4375 287.09375 L 435.4375 435.71875 C 435.435 437.03 434.395 438.09375 433.09375 438.09375 L 404.625 438.09375 C 403.32625 438.09375 402.28125 437.03 402.28125 435.71875 L 402.34375 372.125 L 358.0625 372.125 L 358.0625 435.71875 C 358.0625 437.03 357.0175 438.09375 355.71875 438.09375 L 327.34375 438.09375 C 326.05125 438.09375 325 437.03 325 435.71875 L 325 287.09375 C 325 285.78125 326.05125 284.71875 327.34375 284.71875 z M 562.6875 284.71875 L 591.1875 284.71875 C 592.4825 284.71875 593.53125 285.78125 593.53125 287.09375 L 593.53125 337.40625 C 593.53125 337.40625 604.42875 330.28125 620.4375 330.28125 C 636.4575 330.28125 660.15625 336.24875 660.15625 382.0625 C 660.15625 427.87625 645.3225 441 619.4375 441 C 597.3875 441 585.71875 429.96875 585.71875 429.96875 C 585.71875 429.96875 585.02125 436.01375 584.53125 436.8125 C 584.0325 437.615 583.35875 438.09375 582.46875 438.09375 L 562.6875 438.09375 C 561.38875 438.09375 560.34375 437.03 560.34375 435.71875 L 560.34375 287.09375 C 560.34375 285.78125 561.3925 284.71875 562.6875 284.71875 z M 210.75 288.09375 C 220.86625 288.09375 229.0625 296.36625 229.0625 306.59375 C 229.0625 316.81125 220.86625 325.09375 210.75 325.09375 C 200.64375 325.09375 192.4375 316.81125 192.4375 306.59375 C 192.4375 296.36625 200.64375 288.09375 210.75 288.09375 z M 256.5 303.625 L 285.5625 303.625 C 286.79375 303.625 287.34375 304.1525 287.34375 305.21875 L 287.375 333.375 L 308.65625 333.375 C 309.955 333.375 311.03125 334.4375 311.03125 335.75 L 311.03125 358.625 C 311.03125 359.94 309.955 361 308.65625 361 L 287.375 361 C 287.375 361 287.375 396.4875 287.375 402.78125 C 287.375 409.08 290.91 413.96875 301.375 413.96875 C 304.645 413.96875 307.82125 413.46875 309.0625 413.46875 C 310.31 413.46875 311.40625 414.50125 311.40625 415.8125 L 311.40625 435.9375 C 311.40625 436.885 310.90625 437.7525 310.0625 438.0625 C 308.6675 438.5775 300.22 440.84375 293.15625 440.84375 C 277.6975 440.84375 254.78125 437.63 254.78125 404.96875 L 254.78125 361 L 239.90625 361 C 238.6075 361 237.5625 359.94 237.5625 358.625 L 237.5625 340.34375 C 237.5625 339.26625 238.27125 338.37875 239.25 338.09375 C 240.23375 337.81 254.78125 334.28125 254.78125 334.28125 L 254.78125 305.21875 C 254.78125 304.13375 255.37125 303.625 256.5 303.625 z M 196.375 333.375 L 224.6875 333.375 C 225.98625 333.375 227.03125 334.4475 227.03125 335.75 L 227.03125 404.34375 L 227.03125 434.28125 C 227.03125 436.7 226.36125 438.0625 223.5625 438.0625 L 198.03125 438.0625 C 195.70125 438.0625 193.90625 437.2 193.90625 434.3125 L 193.90625 336.03125 C 193.90625 334.73 195.07625 333.375 196.375 333.375 z M 451.71875 333.59375 L 480.34375 333.59375 C 481.6375 333.59375 482.6875 334.65875 482.6875 335.96875 L 482.6875 399.53125 C 482.6875 409.4825 485.36875 414.09375 495.53125 414.09375 C 505.695 414.09375 512.84375 408.875 512.84375 408.875 L 512.84375 335.96875 C 512.84375 334.65875 513.895 333.59375 515.1875 333.59375 L 543.375 333.59375 C 544.67375 333.59375 545.75 334.65875 545.75 335.96875 L 545.75 435.75 C 545.75 437.05625 544.6975 438.125 543.40625 438.125 L 525.1875 438.21875 C 524.27875 438.21875 523.44875 437.54625 523.125 436.90625 C 522.8025 436.265 522.09375 430.875 522.09375 430.875 C 522.09375 430.875 507.09125 441.125 488.5 441.125 C 465.8375 441.125 449.375 433.90125 449.375 404.34375 L 449.375 335.96875 C 449.375 334.65875 450.4275 333.59375 451.71875 333.59375 z M 611.25 357.34375 C 610.01116 357.29959 608.7375 357.35516 607.46875 357.46875 C 599.4425 358.18625 592.90625 362.21875 592.90625 362.21875 L 592.90625 409.28125 C 592.90625 409.28125 599.53625 413.7025 609.3125 414 C 622.98875 414.4125 627.40625 409.37625 627.40625 383.84375 C 627.40625 362.65781 619.9219 357.65289 611.25 357.34375 z "
       transform="matrix(0.8,0,0,-0.8,0,576)"
       id="rect3023"
       inkscape:export-xdpi="12.916536"
       inkscape:export-ydpi="12.916536"
       inkscape:export-filename="/Users/zachary/Oneman2feet.github.io/tools/images/github.png" /><g
       id="g12"><g
         id="g14"
         clip-path="url(#clipPath16)"><g
           id="g20"
           transform="translate(140.375,297.3496)" /><g
           id="g24"
           transform="translate(348.3525,346.335)" /><g
           id="g28"
           transform="translate(183.2539,330.7324)" /><g
           id="g32"
           transform="translate(181.6289,252.5137)" /><g
           id="g36"
           transform="translate(434.71,309.1152)" /><g
           id="g40"
           transform="translate(487.4453,244.793)" /><g
           id="g44"
           transform="translate(246.9355,309.3047)" /></g></g></g></svg>