<?xml version="1.0" encoding="UTF-8" standalone="no"?>
<!-- Created with Inkscape (http://www.inkscape.org/) -->

<svg
   xmlns:dc="http://purl.org/dc/elements/1.1/"
   xmlns:cc="http://creativecommons.org/ns#"
   xmlns:rdf="http://www.w3.org/1999/02/22-rdf-syntax-ns#"
   xmlns:svg="http://www.w3.org/2000/svg"
   xmlns="http://www.w3.org/2000/svg"
   version="1.1"
   width="64"
   height="64"
   id="svg3375">
  <defs
     id="defs3377" />
  <metadata
     id="metadata3380">
    <rdf:RDF>
      <cc:Work
         rdf:about="">
        <dc:format>image/svg+xml</dc:format>
        <dc:type
           rdf:resource="http://purl.org/dc/dcmitype/StillImage" />
        <dc:title></dc:title>
      </cc:Work>
    </rdf:RDF>
  </metadata>
  <g
     transform="translate(-376.78098,-493.93576)"
     id="layer1">
    <path
       d="m 58.414183,89.541738 c -0.888333,-1.334293 -2.305149,-2.217281 -3.748935,-2.854682 -0.504687,-0.222809 -1.032406,-0.389296 -1.548609,-0.583945 -2.248356,-0.666874 -4.608206,-1.124706 -6.962973,-0.859074 -1.468932,0.165704 -1.6869,0.335405 -3.044624,0.832892 0.254509,-0.129357 0.917782,-0.628304 0.763525,-0.38807 -0.260385,0.405514 -0.767126,0.587772 -1.109516,0.926905 -0.33926,0.336033 -0.646637,0.705492 -0.928043,1.091272 -0.537536,0.736907 -0.938885,1.532634 -1.254723,2.385675 -0.150478,0.406426 -0.251452,0.829502 -0.377178,1.244252 -0.496853,2.019329 -0.557244,4.101633 -0.555023,6.169967 -0.06584,0.708102 0.21823,1.749485 -0.126706,2.407429 -0.04722,0.09007 -0.122,0.162731 -0.183,0.244101 -0.847957,0.48337 -1.674813,1.0058 -2.543871,1.45012 -0.103939,0.0531 -0.865258,0.0957 -0.928559,0.0993 -0.651702,0.0366 -1.033363,-0.0189 -1.661956,-0.1825 -1.195535,-0.41024 -1.7493,-1.38196 -2.263272,-2.460436 -0.471006,-1.056663 -0.639481,-2.197906 -0.736175,-3.340147 -0.03463,-0.562061 -0.04907,-1.125018 -0.05973,-1.687943 0,0 2.329429,-1.188221 2.329429,-1.188221 l 0,0 c -0.0055,0.561808 -0.0081,1.124019 0.02458,1.6852 0.07471,1.115121 0.216992,2.232133 0.674417,3.264466 0.495696,1.020704 0.994769,1.912358 2.151873,2.260921 0.596992,0.13004 1.001627,0.171 1.614784,0.10848 1.172017,-0.11949 2.211692,-0.8751 -1.028565,0.99277 0.07522,-0.0517 0.16422,-0.0876 0.225648,-0.15515 0.44122,-0.48495 0.183584,-1.756046 0.256342,-2.351604 0.0327,-2.10354 0.122332,-4.217672 0.608417,-6.273994 0.123372,-0.424194 0.221994,-0.856385 0.370117,-1.272583 0.314815,-0.884568 0.704871,-1.684512 1.243671,-2.45651 1.407271,-2.016351 3.153005,-2.878914 5.380809,-4.044813 1.374765,-0.46245 1.587712,-0.621034 3.064325,-0.756769 2.378053,-0.218597 4.751934,0.266545 7.021171,0.931157 0.529165,0.196777 1.069282,0.366297 1.587496,0.590331 1.5097,0.652673 2.978253,1.549606 4.03132,2.831404 0,0 -2.286465,1.339799 -2.286465,1.339799 z"
       transform="translate(376.78098,493.93576)"
       id="path4778"
       style="opacity:0.98999999;color:#000000;fill:#ffffff;fill-opacity:1;fill-rule:nonzero;stroke:none;stroke-width:10;marker:none;visibility:visible;display:inline;overflow:visible;enable-background:accumulate" />
    <g
       transform="matrix(0.19736055,0,0,0.19736055,404.30236,421.42841)"
       id="g3052"
       style="fill:#ffffff;fill-opacity:1;stroke:none">
      <path
         d="m -133.02514,668.49865 c -0.92055,-0.37145 -1.25,-4.38412 -1.25,-15.22471 0,-13.80001 0.1605,-15.04241 2.56725,-19.87212 2.92531,-5.87033 7.77648,-10.52742 13.79379,-13.24195 2.27643,-1.02694 13.36396,-5.33681 24.638963,-9.57749 28.21477,-10.61196 44.26948,-17.579 59.25855,-25.71562 13.13766,-7.1316 13.3394,-7.33679 13.96724,-14.20583 0.2421,-2.64873 0.68402,-3.03161 3.77421,-3.26994 8.3544399,-0.64435 8.3233599,-0.61291 7.7437599,-7.83351 -0.48174,-6.00142 -0.82582,-6.78178 -4.4963699,-10.19764 -5.76788,-5.36765 -7.74131,-9.91671 -9.74117,-22.45489 -0.49016,-3.07306 -1.2124,-4.01224 -3.97216,-5.16534 -1.85519,-0.77515 -3.86655,-2.33142 -4.46967,-3.45837 -1.36668,-2.55366 -4.07874,-16.60875 -4.76037,-24.67027 -0.461,-5.45231 -0.25432,-6.35566 2.09222,-9.14436 1.43207,-1.70192 2.60376,-3.72144 2.60376,-4.48782 0,-0.76639 -1.43884,-5.42643 -3.19743,-10.35565 -3.12173,-8.75004 -3.19867,-9.37651 -3.25,-26.46221 -0.0557,-18.52648 0.68764,-23.11848 4.6953,-29.00701 3.43892,-5.05286 7.25762,-7.38714 13.0369,-7.96913 4.82569,-0.48596 5.23881,-0.73755 5.71043,-3.47757 1.27495,-7.4072 16.7455499,-12.72867 37.0048,-12.72867 30.49952,0 49.35507,12.03826 54.66704,34.90198 1.15567,4.97423 1.62956,13.04036 1.77898,30.2804 l 0.20369,23.5 3.30568,3.30361 c 3.22106,3.21904 3.29289,3.47502 2.80626,10 -0.59238,7.94296 -4.92948,21.40758 -8.33583,25.87879 -1.33346,1.75032 -3.43728,3.49847 -4.67515,3.88478 -3.02531,0.94413 -3.71726,2.21622 -3.73536,6.86722 -0.0284,7.28624 -3.06393,15.61422 -7.19848,19.74877 -3.283,3.283 -3.80289,4.41124 -3.71715,8.06683 0.18831,8.02884 0.87666,9.04164 6.93419,10.20249 l 5.46613,1.04751 -0.28234,4.37618 c -0.17463,2.70678 0.31192,5.28311 1.27545,6.75365 2.80434,4.27996 20.19158,12.02764 39.111867,17.42808 39.03437,11.14162 62.26354,22.60826 65.26266,32.21566 1.49102,4.77634 2.96485,15.81817 3.74705,28.07255 0.56038,8.77927 0.42485,11.01544 -0.71119,11.73468 -1.4517,0.91909 -309.38337,1.17294 -311.6535,0.25692 z"
         id="path3054"
         style="fill:#ffffff;fill-opacity:1;stroke:none" />
    </g>
  </g>
</svg>
