<?xml version="1.0" encoding="UTF-8" standalone="no"?>
<!-- Created with Inkscape (http://www.inkscape.org/) -->

<svg
   xmlns:dc="http://purl.org/dc/elements/1.1/"
   xmlns:cc="http://creativecommons.org/ns#"
   xmlns:rdf="http://www.w3.org/1999/02/22-rdf-syntax-ns#"
   xmlns:svg="http://www.w3.org/2000/svg"
   xmlns="http://www.w3.org/2000/svg"
   version="1.1"
   width="64"
   height="64"
   id="svg3375">
  <defs
     id="defs3377" />
  <metadata
     id="metadata3380">
    <rdf:RDF>
      <cc:Work
         rdf:about="">
        <dc:format>image/svg+xml</dc:format>
        <dc:type
           rdf:resource="http://purl.org/dc/dcmitype/StillImage" />
        <dc:title></dc:title>
      </cc:Work>
    </rdf:RDF>
  </metadata>
  <g
     transform="translate(-376.78098,-493.93576)"
     id="layer1">
    <path
       d="m 398.28098,497.93576 c -6.7865,0 -12.25,5.4635 -12.25,12.25 l 0,31.5 c 0,6.7865 5.4635,12.25 12.25,12.25 l 21,0 c 6.7865,0 12.25,-5.4635 12.25,-12.25 l 0,-31.5 c 0,-6.7865 -5.4635,-12.25 -12.25,-12.25 l -21,0 z m 0,4.375 21,0 c 4.43843,0 7.87501,3.43657 7.87501,7.875 l 0,31.5 c 0,4.43843 -3.43658,7.875 -7.87501,7.875 l -21,0 c -4.43843,0 -7.87501,-3.43657 -7.87501,-7.875 l 0,-31.5 c 0,-4.43843 3.43658,-7.875 7.87501,-7.875 z"
       id="rect4265"
       style="opacity:0.98999999;color:#000000;fill:#ffffff;fill-opacity:1;fill-rule:nonzero;stroke:none;stroke-width:3;marker:none;visibility:visible;display:inline;overflow:visible;enable-background:accumulate" />
    <rect
       width="31.384615"
       height="3.6923077"
       ry="1.8461539"
       x="393.08865"
       y="510.32037"
       id="rect4276"
       style="opacity:0.98999999;color:#000000;fill:#ffffff;fill-opacity:1;fill-rule:nonzero;stroke:none;stroke-width:10;marker:none;visibility:visible;display:inline;overflow:visible;enable-background:accumulate" />
    <rect
       width="31.384615"
       height="3.6923077"
       ry="1.8461539"
       x="393.08865"
       y="518.62811"
       id="rect4278"
       style="opacity:0.98999999;color:#000000;fill:#ffffff;fill-opacity:1;fill-rule:nonzero;stroke:none;stroke-width:10;marker:none;visibility:visible;display:inline;overflow:visible;enable-background:accumulate" />
    <rect
       width="31.384615"
       height="3.6923077"
       ry="1.8461539"
       x="393.08865"
       y="526.93579"
       id="rect4280"
       style="opacity:0.98999999;color:#000000;fill:#ffffff;fill-opacity:1;fill-rule:nonzero;stroke:none;stroke-width:10;marker:none;visibility:visible;display:inline;overflow:visible;enable-background:accumulate" />
  </g>
</svg>
